<?xml version="1.0" standalone="no"?>
 <!DOCTYPE svg PUBLIC "-//W3C//DTD SVG 1.1//EN" 
 "http://www.w3.org/Graphics/SVG/1.1/DTD/svg11.dtd"> 
<svg
  xmlns:svg="http://www.w3.org/2000/svg"
  xmlns="http://www.w3.org/2000/svg"
  xmlns:xlink="http://www.w3.org/1999/xlink"
  version="1.1"
  width="82.8548mm" height="91.4146mm" viewBox="0.0000 0.0000 82.8548 91.4146">
<title>SVG Image created as storybox-F_Fab.svg date 2024/04/03 21:56:16 </title>
  <desc>Image generated by PCBNEW </desc>
<g style="fill:#000000; fill-opacity:1.0000;stroke:#000000; stroke-opacity:1.0000;
stroke-linecap:round; stroke-linejoin:round;"
 transform="translate(0 0) scale(1 1)">
<path style="fill:none; 
stroke:#000000; stroke-width:0.1000; stroke-opacity:1; 
stroke-linecap:round; stroke-linejoin:round;fill:none"
d="M 8.1000,7.2683
53.1000,7.2683
53.1000,82.2682
8.1000,82.2682
Z" /> 
</g>
<g style="fill:none; 
stroke:#000000; stroke-width:0.1500; stroke-opacity:1; 
stroke-linecap:round; stroke-linejoin:round;">
<g transform="rotate(-90.000000 51.0050 54.8982)">
<text x="51.0050" y="55.3982"
textLength="3.9167" font-size="1.3333" lengthAdjust="spacingAndGlyphs"
text-anchor="middle" opacity="0">100k</text>
</g>
<g class="stroked-text"><desc>100k</desc>
<path d="M51.4598 55.9697
L51.4598 56.5411
" />
<path d="M51.4598 56.2554
L50.4598 56.2554
" />
<path d="M50.4598 56.2554
L50.6027 56.3506
" />
<path d="M50.6027 56.3506
L50.6979 56.4459
" />
<path d="M50.6979 56.4459
L50.7455 56.5411
" />
<path d="M50.4598 55.3506
L50.4598 55.2554
" />
<path d="M50.4598 55.2554
L50.5074 55.1602
" />
<path d="M50.5074 55.1602
L50.5551 55.1125
" />
<path d="M50.5551 55.1125
L50.6503 55.0649
" />
<path d="M50.6503 55.0649
L50.8408 55.0173
" />
<path d="M50.8408 55.0173
L51.0789 55.0173
" />
<path d="M51.0789 55.0173
L51.2693 55.0649
" />
<path d="M51.2693 55.0649
L51.3646 55.1125
" />
<path d="M51.3646 55.1125
L51.4122 55.1602
" />
<path d="M51.4122 55.1602
L51.4598 55.2554
" />
<path d="M51.4598 55.2554
L51.4598 55.3506
" />
<path d="M51.4598 55.3506
L51.4122 55.4459
" />
<path d="M51.4122 55.4459
L51.3646 55.4935
" />
<path d="M51.3646 55.4935
L51.2693 55.5411
" />
<path d="M51.2693 55.5411
L51.0789 55.5887
" />
<path d="M51.0789 55.5887
L50.8408 55.5887
" />
<path d="M50.8408 55.5887
L50.6503 55.5411
" />
<path d="M50.6503 55.5411
L50.5551 55.4935
" />
<path d="M50.5551 55.4935
L50.5074 55.4459
" />
<path d="M50.5074 55.4459
L50.4598 55.3506
" />
<path d="M50.4598 54.3982
L50.4598 54.3030
" />
<path d="M50.4598 54.3030
L50.5074 54.2078
" />
<path d="M50.5074 54.2078
L50.5551 54.1602
" />
<path d="M50.5551 54.1602
L50.6503 54.1125
" />
<path d="M50.6503 54.1125
L50.8408 54.0649
" />
<path d="M50.8408 54.0649
L51.0789 54.0649
" />
<path d="M51.0789 54.0649
L51.2693 54.1125
" />
<path d="M51.2693 54.1125
L51.3646 54.1602
" />
<path d="M51.3646 54.1602
L51.4122 54.2078
" />
<path d="M51.4122 54.2078
L51.4598 54.3030
" />
<path d="M51.4598 54.3030
L51.4598 54.3982
" />
<path d="M51.4598 54.3982
L51.4122 54.4935
" />
<path d="M51.4122 54.4935
L51.3646 54.5411
" />
<path d="M51.3646 54.5411
L51.2693 54.5887
" />
<path d="M51.2693 54.5887
L51.0789 54.6363
" />
<path d="M51.0789 54.6363
L50.8408 54.6363
" />
<path d="M50.8408 54.6363
L50.6503 54.5887
" />
<path d="M50.6503 54.5887
L50.5551 54.5411
" />
<path d="M50.5551 54.5411
L50.5074 54.4935
" />
<path d="M50.5074 54.4935
L50.4598 54.3982
" />
<path d="M51.4598 53.6363
L50.4598 53.6363
" />
<path d="M51.0789 53.5411
L51.4598 53.2554
" />
<path d="M50.7932 53.2554
L51.1741 53.6363
" />
</g><g transform="rotate(-90.000000 54.8450 54.8982)">
<text x="54.8450" y="55.3982"
textLength="2.2024" font-size="1.3333" lengthAdjust="spacingAndGlyphs"
text-anchor="middle" opacity="0">R2</text>
</g>
<g class="stroked-text"><desc>R2</desc>
<path d="M55.2998 55.0649
L54.8236 55.3982
" />
<path d="M55.2998 55.6363
L54.2998 55.6363
" />
<path d="M54.2998 55.6363
L54.2998 55.2554
" />
<path d="M54.2998 55.2554
L54.3474 55.1602
" />
<path d="M54.3474 55.1602
L54.3951 55.1125
" />
<path d="M54.3951 55.1125
L54.4903 55.0649
" />
<path d="M54.4903 55.0649
L54.6332 55.0649
" />
<path d="M54.6332 55.0649
L54.7284 55.1125
" />
<path d="M54.7284 55.1125
L54.7760 55.1602
" />
<path d="M54.7760 55.1602
L54.8236 55.2554
" />
<path d="M54.8236 55.2554
L54.8236 55.6363
" />
<path d="M54.3951 54.6840
L54.3474 54.6363
" />
<path d="M54.3474 54.6363
L54.2998 54.5411
" />
<path d="M54.2998 54.5411
L54.2998 54.3030
" />
<path d="M54.2998 54.3030
L54.3474 54.2078
" />
<path d="M54.3474 54.2078
L54.3951 54.1602
" />
<path d="M54.3951 54.1602
L54.4903 54.1125
" />
<path d="M54.4903 54.1125
L54.5855 54.1125
" />
<path d="M54.5855 54.1125
L54.7284 54.1602
" />
<path d="M54.7284 54.1602
L55.2998 54.7316
" />
<path d="M55.2998 54.7316
L55.2998 54.1125
" />
</g><g transform="rotate(-180.000000 31.0100 74.1302)">
<text x="31.0100" y="74.6302"
textLength="2.2500" font-size="1.3333" lengthAdjust="spacingAndGlyphs"
text-anchor="middle" opacity="0">U2</text>
</g>
<g class="stroked-text"><desc>U2</desc>
<path d="M31.7719 74.6754
L31.7719 73.8659
" />
<path d="M31.7719 73.8659
L31.7243 73.7707
" />
<path d="M31.7243 73.7707
L31.6767 73.7231
" />
<path d="M31.6767 73.7231
L31.5814 73.6754
" />
<path d="M31.5814 73.6754
L31.3910 73.6754
" />
<path d="M31.3910 73.6754
L31.2957 73.7231
" />
<path d="M31.2957 73.7231
L31.2481 73.7707
" />
<path d="M31.2481 73.7707
L31.2005 73.8659
" />
<path d="M31.2005 73.8659
L31.2005 74.6754
" />
<path d="M30.7719 74.5802
L30.7243 74.6278
" />
<path d="M30.7243 74.6278
L30.6290 74.6754
" />
<path d="M30.6290 74.6754
L30.3910 74.6754
" />
<path d="M30.3910 74.6754
L30.2957 74.6278
" />
<path d="M30.2957 74.6278
L30.2481 74.5802
" />
<path d="M30.2481 74.5802
L30.2005 74.4850
" />
<path d="M30.2005 74.4850
L30.2005 74.3897
" />
<path d="M30.2005 74.3897
L30.2481 74.2469
" />
<path d="M30.2481 74.2469
L30.8195 73.6754
" />
<path d="M30.8195 73.6754
L30.2005 73.6754
" />
</g><g transform="rotate(-270.000000 62.7640 29.4887)">
<text x="62.7640" y="29.9887"
textLength="2.2500" font-size="1.3333" lengthAdjust="spacingAndGlyphs"
text-anchor="middle" opacity="0">U3</text>
</g>
<g class="stroked-text"><desc>U3</desc>
<path d="M63.3092 28.7268
L62.4997 28.7268
" />
<path d="M62.4997 28.7268
L62.4044 28.7745
" />
<path d="M62.4044 28.7745
L62.3568 28.8221
" />
<path d="M62.3568 28.8221
L62.3092 28.9173
" />
<path d="M62.3092 28.9173
L62.3092 29.1078
" />
<path d="M62.3092 29.1078
L62.3568 29.2030
" />
<path d="M62.3568 29.2030
L62.4044 29.2507
" />
<path d="M62.4044 29.2507
L62.4997 29.2983
" />
<path d="M62.4997 29.2983
L63.3092 29.2983
" />
<path d="M63.3092 29.6792
L63.3092 30.2983
" />
<path d="M63.3092 30.2983
L62.9282 29.9649
" />
<path d="M62.9282 29.9649
L62.9282 30.1078
" />
<path d="M62.9282 30.1078
L62.8806 30.2030
" />
<path d="M62.8806 30.2030
L62.8330 30.2507
" />
<path d="M62.8330 30.2507
L62.7378 30.2983
" />
<path d="M62.7378 30.2983
L62.4997 30.2983
" />
<path d="M62.4997 30.2983
L62.4044 30.2507
" />
<path d="M62.4044 30.2507
L62.3568 30.2030
" />
<path d="M62.3568 30.2030
L62.3092 30.1078
" />
<path d="M62.3092 30.1078
L62.3092 29.8221
" />
<path d="M62.3092 29.8221
L62.3568 29.7268
" />
<path d="M62.3568 29.7268
L62.4044 29.6792
" />
</g><g transform="rotate(-90.000000 13.3000 18.5765)">
<text x="13.3000" y="19.0765"
textLength="3.2976" font-size="1.3333" lengthAdjust="spacingAndGlyphs"
text-anchor="middle" opacity="0">SW1</text>
</g>
<g class="stroked-text"><desc>SW1</desc>
<path d="M13.7072 19.9099
L13.7548 19.7670
" />
<path d="M13.7548 19.7670
L13.7548 19.5289
" />
<path d="M13.7548 19.5289
L13.7072 19.4337
" />
<path d="M13.7072 19.4337
L13.6596 19.3861
" />
<path d="M13.6596 19.3861
L13.5643 19.3385
" />
<path d="M13.5643 19.3385
L13.4691 19.3385
" />
<path d="M13.4691 19.3385
L13.3739 19.3861
" />
<path d="M13.3739 19.3861
L13.3262 19.4337
" />
<path d="M13.3262 19.4337
L13.2786 19.5289
" />
<path d="M13.2786 19.5289
L13.2310 19.7194
" />
<path d="M13.2310 19.7194
L13.1834 19.8146
" />
<path d="M13.1834 19.8146
L13.1358 19.8623
" />
<path d="M13.1358 19.8623
L13.0405 19.9099
" />
<path d="M13.0405 19.9099
L12.9453 19.9099
" />
<path d="M12.9453 19.9099
L12.8501 19.8623
" />
<path d="M12.8501 19.8623
L12.8024 19.8146
" />
<path d="M12.8024 19.8146
L12.7548 19.7194
" />
<path d="M12.7548 19.7194
L12.7548 19.4813
" />
<path d="M12.7548 19.4813
L12.8024 19.3385
" />
<path d="M12.7548 19.0051
L13.7548 18.7670
" />
<path d="M13.7548 18.7670
L13.0405 18.5765
" />
<path d="M13.0405 18.5765
L13.7548 18.3861
" />
<path d="M13.7548 18.3861
L12.7548 18.1480
" />
<path d="M13.7548 17.2432
L13.7548 17.8146
" />
<path d="M13.7548 17.5289
L12.7548 17.5289
" />
<path d="M12.7548 17.5289
L12.8977 17.6242
" />
<path d="M12.8977 17.6242
L12.9929 17.7194
" />
<path d="M12.9929 17.7194
L13.0405 17.8146
" />
</g><g transform="rotate(-90.000000 13.3000 53.4099)">
<text x="13.3000" y="53.9099"
textLength="3.2976" font-size="1.3333" lengthAdjust="spacingAndGlyphs"
text-anchor="middle" opacity="0">SW2</text>
</g>
<g class="stroked-text"><desc>SW2</desc>
<path d="M13.7072 54.7433
L13.7548 54.6004
" />
<path d="M13.7548 54.6004
L13.7548 54.3623
" />
<path d="M13.7548 54.3623
L13.7072 54.2671
" />
<path d="M13.7072 54.2671
L13.6596 54.2195
" />
<path d="M13.6596 54.2195
L13.5643 54.1719
" />
<path d="M13.5643 54.1719
L13.4691 54.1719
" />
<path d="M13.4691 54.1719
L13.3739 54.2195
" />
<path d="M13.3739 54.2195
L13.3262 54.2671
" />
<path d="M13.3262 54.2671
L13.2786 54.3623
" />
<path d="M13.2786 54.3623
L13.2310 54.5528
" />
<path d="M13.2310 54.5528
L13.1834 54.6480
" />
<path d="M13.1834 54.6480
L13.1358 54.6957
" />
<path d="M13.1358 54.6957
L13.0405 54.7433
" />
<path d="M13.0405 54.7433
L12.9453 54.7433
" />
<path d="M12.9453 54.7433
L12.8501 54.6957
" />
<path d="M12.8501 54.6957
L12.8024 54.6480
" />
<path d="M12.8024 54.6480
L12.7548 54.5528
" />
<path d="M12.7548 54.5528
L12.7548 54.3147
" />
<path d="M12.7548 54.3147
L12.8024 54.1719
" />
<path d="M12.7548 53.8385
L13.7548 53.6004
" />
<path d="M13.7548 53.6004
L13.0405 53.4099
" />
<path d="M13.0405 53.4099
L13.7548 53.2195
" />
<path d="M13.7548 53.2195
L12.7548 52.9814
" />
<path d="M12.8501 52.6480
L12.8024 52.6004
" />
<path d="M12.8024 52.6004
L12.7548 52.5052
" />
<path d="M12.7548 52.5052
L12.7548 52.2671
" />
<path d="M12.7548 52.2671
L12.8024 52.1719
" />
<path d="M12.8024 52.1719
L12.8501 52.1242
" />
<path d="M12.8501 52.1242
L12.9453 52.0766
" />
<path d="M12.9453 52.0766
L13.0405 52.0766
" />
<path d="M13.0405 52.0766
L13.1834 52.1242
" />
<path d="M13.1834 52.1242
L13.7548 52.6957
" />
<path d="M13.7548 52.6957
L13.7548 52.0766
" />
</g><text x="8.1250" y="86.9183"
textLength="10.2976" font-size="1.3333" lengthAdjust="spacingAndGlyphs"
text-anchor="middle" opacity="0">MountingHole</text>
<g class="stroked-text"><desc>MountingHole</desc>
<path d="M3.3393 86.8731
L3.3393 85.8731
" />
<path d="M3.3393 85.8731
L3.6726 86.5874
" />
<path d="M3.6726 86.5874
L4.0060 85.8731
" />
<path d="M4.0060 85.8731
L4.0060 86.8731
" />
<path d="M4.6250 86.8731
L4.5298 86.8254
" />
<path d="M4.5298 86.8254
L4.4821 86.7778
" />
<path d="M4.4821 86.7778
L4.4345 86.6826
" />
<path d="M4.4345 86.6826
L4.4345 86.3969
" />
<path d="M4.4345 86.3969
L4.4821 86.3016
" />
<path d="M4.4821 86.3016
L4.5298 86.2540
" />
<path d="M4.5298 86.2540
L4.6250 86.2064
" />
<path d="M4.6250 86.2064
L4.7679 86.2064
" />
<path d="M4.7679 86.2064
L4.8631 86.2540
" />
<path d="M4.8631 86.2540
L4.9107 86.3016
" />
<path d="M4.9107 86.3016
L4.9583 86.3969
" />
<path d="M4.9583 86.3969
L4.9583 86.6826
" />
<path d="M4.9583 86.6826
L4.9107 86.7778
" />
<path d="M4.9107 86.7778
L4.8631 86.8254
" />
<path d="M4.8631 86.8254
L4.7679 86.8731
" />
<path d="M4.7679 86.8731
L4.6250 86.8731
" />
<path d="M5.8155 86.2064
L5.8155 86.8731
" />
<path d="M5.3869 86.2064
L5.3869 86.7302
" />
<path d="M5.3869 86.7302
L5.4345 86.8254
" />
<path d="M5.4345 86.8254
L5.5298 86.8731
" />
<path d="M5.5298 86.8731
L5.6726 86.8731
" />
<path d="M5.6726 86.8731
L5.7679 86.8254
" />
<path d="M5.7679 86.8254
L5.8155 86.7778
" />
<path d="M6.2917 86.2064
L6.2917 86.8731
" />
<path d="M6.2917 86.3016
L6.3393 86.2540
" />
<path d="M6.3393 86.2540
L6.4345 86.2064
" />
<path d="M6.4345 86.2064
L6.5774 86.2064
" />
<path d="M6.5774 86.2064
L6.6726 86.2540
" />
<path d="M6.6726 86.2540
L6.7202 86.3493
" />
<path d="M6.7202 86.3493
L6.7202 86.8731
" />
<path d="M7.0536 86.2064
L7.4345 86.2064
" />
<path d="M7.1964 85.8731
L7.1964 86.7302
" />
<path d="M7.1964 86.7302
L7.2440 86.8254
" />
<path d="M7.2440 86.8254
L7.3393 86.8731
" />
<path d="M7.3393 86.8731
L7.4345 86.8731
" />
<path d="M7.7679 86.8731
L7.7679 86.2064
" />
<path d="M7.7679 85.8731
L7.7202 85.9207
" />
<path d="M7.7202 85.9207
L7.7679 85.9683
" />
<path d="M7.7679 85.9683
L7.8155 85.9207
" />
<path d="M7.8155 85.9207
L7.7679 85.8731
" />
<path d="M7.7679 85.8731
L7.7679 85.9683
" />
<path d="M8.2440 86.2064
L8.2440 86.8731
" />
<path d="M8.2440 86.3016
L8.2917 86.2540
" />
<path d="M8.2917 86.2540
L8.3869 86.2064
" />
<path d="M8.3869 86.2064
L8.5298 86.2064
" />
<path d="M8.5298 86.2064
L8.6250 86.2540
" />
<path d="M8.6250 86.2540
L8.6726 86.3493
" />
<path d="M8.6726 86.3493
L8.6726 86.8731
" />
<path d="M9.5774 86.2064
L9.5774 87.0159
" />
<path d="M9.5774 87.0159
L9.5298 87.1112
" />
<path d="M9.5298 87.1112
L9.4821 87.1588
" />
<path d="M9.4821 87.1588
L9.3869 87.2064
" />
<path d="M9.3869 87.2064
L9.2440 87.2064
" />
<path d="M9.2440 87.2064
L9.1488 87.1588
" />
<path d="M9.5774 86.8254
L9.4821 86.8731
" />
<path d="M9.4821 86.8731
L9.2917 86.8731
" />
<path d="M9.2917 86.8731
L9.1964 86.8254
" />
<path d="M9.1964 86.8254
L9.1488 86.7778
" />
<path d="M9.1488 86.7778
L9.1012 86.6826
" />
<path d="M9.1012 86.6826
L9.1012 86.3969
" />
<path d="M9.1012 86.3969
L9.1488 86.3016
" />
<path d="M9.1488 86.3016
L9.1964 86.2540
" />
<path d="M9.1964 86.2540
L9.2917 86.2064
" />
<path d="M9.2917 86.2064
L9.4821 86.2064
" />
<path d="M9.4821 86.2064
L9.5774 86.2540
" />
<path d="M10.0536 86.8731
L10.0536 85.8731
" />
<path d="M10.0536 86.3493
L10.6250 86.3493
" />
<path d="M10.6250 86.8731
L10.6250 85.8731
" />
<path d="M11.2440 86.8731
L11.1488 86.8254
" />
<path d="M11.1488 86.8254
L11.1012 86.7778
" />
<path d="M11.1012 86.7778
L11.0536 86.6826
" />
<path d="M11.0536 86.6826
L11.0536 86.3969
" />
<path d="M11.0536 86.3969
L11.1012 86.3016
" />
<path d="M11.1012 86.3016
L11.1488 86.2540
" />
<path d="M11.1488 86.2540
L11.2440 86.2064
" />
<path d="M11.2440 86.2064
L11.3869 86.2064
" />
<path d="M11.3869 86.2064
L11.4821 86.2540
" />
<path d="M11.4821 86.2540
L11.5298 86.3016
" />
<path d="M11.5298 86.3016
L11.5774 86.3969
" />
<path d="M11.5774 86.3969
L11.5774 86.6826
" />
<path d="M11.5774 86.6826
L11.5298 86.7778
" />
<path d="M11.5298 86.7778
L11.4821 86.8254
" />
<path d="M11.4821 86.8254
L11.3869 86.8731
" />
<path d="M11.3869 86.8731
L11.2440 86.8731
" />
<path d="M12.1488 86.8731
L12.0536 86.8254
" />
<path d="M12.0536 86.8254
L12.0060 86.7302
" />
<path d="M12.0060 86.7302
L12.0060 85.8731
" />
<path d="M12.9107 86.8254
L12.8155 86.8731
" />
<path d="M12.8155 86.8731
L12.6250 86.8731
" />
<path d="M12.6250 86.8731
L12.5298 86.8254
" />
<path d="M12.5298 86.8254
L12.4821 86.7302
" />
<path d="M12.4821 86.7302
L12.4821 86.3493
" />
<path d="M12.4821 86.3493
L12.5298 86.2540
" />
<path d="M12.5298 86.2540
L12.6250 86.2064
" />
<path d="M12.6250 86.2064
L12.8155 86.2064
" />
<path d="M12.8155 86.2064
L12.9107 86.2540
" />
<path d="M12.9107 86.2540
L12.9583 86.3493
" />
<path d="M12.9583 86.3493
L12.9583 86.4445
" />
<path d="M12.9583 86.4445
L12.4821 86.5397
" />
</g><text x="9.3250" y="81.2182"
textLength="2.2500" font-size="1.3333" lengthAdjust="spacingAndGlyphs"
text-anchor="middle" opacity="0">H4</text>
<g class="stroked-text"><desc>H4</desc>
<path d="M8.5631 81.1731
L8.5631 80.1731
" />
<path d="M8.5631 80.6493
L9.1345 80.6493
" />
<path d="M9.1345 81.1731
L9.1345 80.1731
" />
<path d="M10.0393 80.5064
L10.0393 81.1731
" />
<path d="M9.8012 80.1255
L9.5631 80.8397
" />
<path d="M9.5631 80.8397
L10.1821 80.8397
" />
</g><text x="32.9350" y="31.5482"
textLength="2.2500" font-size="1.3333" lengthAdjust="spacingAndGlyphs"
text-anchor="middle" opacity="0">U1</text>
<g class="stroked-text"><desc>U1</desc>
<path d="M32.1731 30.5031
L32.1731 31.3126
" />
<path d="M32.1731 31.3126
L32.2207 31.4078
" />
<path d="M32.2207 31.4078
L32.2683 31.4554
" />
<path d="M32.2683 31.4554
L32.3636 31.5031
" />
<path d="M32.3636 31.5031
L32.5540 31.5031
" />
<path d="M32.5540 31.5031
L32.6493 31.4554
" />
<path d="M32.6493 31.4554
L32.6969 31.4078
" />
<path d="M32.6969 31.4078
L32.7445 31.3126
" />
<path d="M32.7445 31.3126
L32.7445 30.5031
" />
<path d="M33.7445 31.5031
L33.1731 31.5031
" />
<path d="M33.4588 31.5031
L33.4588 30.5031
" />
<path d="M33.4588 30.5031
L33.3636 30.6459
" />
<path d="M33.3636 30.6459
L33.2683 30.7412
" />
<path d="M33.2683 30.7412
L33.1731 30.7888
" />
</g><text x="53.0500" y="11.9682"
textLength="10.2976" font-size="1.3333" lengthAdjust="spacingAndGlyphs"
text-anchor="middle" opacity="0">MountingHole</text>
<g class="stroked-text"><desc>MountingHole</desc>
<path d="M48.2643 11.9231
L48.2643 10.9231
" />
<path d="M48.2643 10.9231
L48.5976 11.6374
" />
<path d="M48.5976 11.6374
L48.9310 10.9231
" />
<path d="M48.9310 10.9231
L48.9310 11.9231
" />
<path d="M49.5500 11.9231
L49.4548 11.8754
" />
<path d="M49.4548 11.8754
L49.4071 11.8278
" />
<path d="M49.4071 11.8278
L49.3595 11.7326
" />
<path d="M49.3595 11.7326
L49.3595 11.4469
" />
<path d="M49.3595 11.4469
L49.4071 11.3516
" />
<path d="M49.4071 11.3516
L49.4548 11.3040
" />
<path d="M49.4548 11.3040
L49.5500 11.2564
" />
<path d="M49.5500 11.2564
L49.6929 11.2564
" />
<path d="M49.6929 11.2564
L49.7881 11.3040
" />
<path d="M49.7881 11.3040
L49.8357 11.3516
" />
<path d="M49.8357 11.3516
L49.8833 11.4469
" />
<path d="M49.8833 11.4469
L49.8833 11.7326
" />
<path d="M49.8833 11.7326
L49.8357 11.8278
" />
<path d="M49.8357 11.8278
L49.7881 11.8754
" />
<path d="M49.7881 11.8754
L49.6929 11.9231
" />
<path d="M49.6929 11.9231
L49.5500 11.9231
" />
<path d="M50.7405 11.2564
L50.7405 11.9231
" />
<path d="M50.3119 11.2564
L50.3119 11.7802
" />
<path d="M50.3119 11.7802
L50.3595 11.8754
" />
<path d="M50.3595 11.8754
L50.4548 11.9231
" />
<path d="M50.4548 11.9231
L50.5976 11.9231
" />
<path d="M50.5976 11.9231
L50.6929 11.8754
" />
<path d="M50.6929 11.8754
L50.7405 11.8278
" />
<path d="M51.2167 11.2564
L51.2167 11.9231
" />
<path d="M51.2167 11.3516
L51.2643 11.3040
" />
<path d="M51.2643 11.3040
L51.3595 11.2564
" />
<path d="M51.3595 11.2564
L51.5024 11.2564
" />
<path d="M51.5024 11.2564
L51.5976 11.3040
" />
<path d="M51.5976 11.3040
L51.6452 11.3993
" />
<path d="M51.6452 11.3993
L51.6452 11.9231
" />
<path d="M51.9786 11.2564
L52.3595 11.2564
" />
<path d="M52.1214 10.9231
L52.1214 11.7802
" />
<path d="M52.1214 11.7802
L52.1690 11.8754
" />
<path d="M52.1690 11.8754
L52.2643 11.9231
" />
<path d="M52.2643 11.9231
L52.3595 11.9231
" />
<path d="M52.6929 11.9231
L52.6929 11.2564
" />
<path d="M52.6929 10.9231
L52.6452 10.9707
" />
<path d="M52.6452 10.9707
L52.6929 11.0183
" />
<path d="M52.6929 11.0183
L52.7405 10.9707
" />
<path d="M52.7405 10.9707
L52.6929 10.9231
" />
<path d="M52.6929 10.9231
L52.6929 11.0183
" />
<path d="M53.1690 11.2564
L53.1690 11.9231
" />
<path d="M53.1690 11.3516
L53.2167 11.3040
" />
<path d="M53.2167 11.3040
L53.3119 11.2564
" />
<path d="M53.3119 11.2564
L53.4548 11.2564
" />
<path d="M53.4548 11.2564
L53.5500 11.3040
" />
<path d="M53.5500 11.3040
L53.5976 11.3993
" />
<path d="M53.5976 11.3993
L53.5976 11.9231
" />
<path d="M54.5024 11.2564
L54.5024 12.0659
" />
<path d="M54.5024 12.0659
L54.4548 12.1612
" />
<path d="M54.4548 12.1612
L54.4071 12.2088
" />
<path d="M54.4071 12.2088
L54.3119 12.2564
" />
<path d="M54.3119 12.2564
L54.1690 12.2564
" />
<path d="M54.1690 12.2564
L54.0738 12.2088
" />
<path d="M54.5024 11.8754
L54.4071 11.9231
" />
<path d="M54.4071 11.9231
L54.2167 11.9231
" />
<path d="M54.2167 11.9231
L54.1214 11.8754
" />
<path d="M54.1214 11.8754
L54.0738 11.8278
" />
<path d="M54.0738 11.8278
L54.0262 11.7326
" />
<path d="M54.0262 11.7326
L54.0262 11.4469
" />
<path d="M54.0262 11.4469
L54.0738 11.3516
" />
<path d="M54.0738 11.3516
L54.1214 11.3040
" />
<path d="M54.1214 11.3040
L54.2167 11.2564
" />
<path d="M54.2167 11.2564
L54.4071 11.2564
" />
<path d="M54.4071 11.2564
L54.5024 11.3040
" />
<path d="M54.9786 11.9231
L54.9786 10.9231
" />
<path d="M54.9786 11.3993
L55.5500 11.3993
" />
<path d="M55.5500 11.9231
L55.5500 10.9231
" />
<path d="M56.1690 11.9231
L56.0738 11.8754
" />
<path d="M56.0738 11.8754
L56.0262 11.8278
" />
<path d="M56.0262 11.8278
L55.9786 11.7326
" />
<path d="M55.9786 11.7326
L55.9786 11.4469
" />
<path d="M55.9786 11.4469
L56.0262 11.3516
" />
<path d="M56.0262 11.3516
L56.0738 11.3040
" />
<path d="M56.0738 11.3040
L56.1690 11.2564
" />
<path d="M56.1690 11.2564
L56.3119 11.2564
" />
<path d="M56.3119 11.2564
L56.4071 11.3040
" />
<path d="M56.4071 11.3040
L56.4548 11.3516
" />
<path d="M56.4548 11.3516
L56.5024 11.4469
" />
<path d="M56.5024 11.4469
L56.5024 11.7326
" />
<path d="M56.5024 11.7326
L56.4548 11.8278
" />
<path d="M56.4548 11.8278
L56.4071 11.8754
" />
<path d="M56.4071 11.8754
L56.3119 11.9231
" />
<path d="M56.3119 11.9231
L56.1690 11.9231
" />
<path d="M57.0738 11.9231
L56.9786 11.8754
" />
<path d="M56.9786 11.8754
L56.9310 11.7802
" />
<path d="M56.9310 11.7802
L56.9310 10.9231
" />
<path d="M57.8357 11.8754
L57.7405 11.9231
" />
<path d="M57.7405 11.9231
L57.5500 11.9231
" />
<path d="M57.5500 11.9231
L57.4548 11.8754
" />
<path d="M57.4548 11.8754
L57.4071 11.7802
" />
<path d="M57.4071 11.7802
L57.4071 11.3993
" />
<path d="M57.4071 11.3993
L57.4548 11.3040
" />
<path d="M57.4548 11.3040
L57.5500 11.2564
" />
<path d="M57.5500 11.2564
L57.7405 11.2564
" />
<path d="M57.7405 11.2564
L57.8357 11.3040
" />
<path d="M57.8357 11.3040
L57.8833 11.3993
" />
<path d="M57.8833 11.3993
L57.8833 11.4945
" />
<path d="M57.8833 11.4945
L57.4071 11.5897
" />
</g><text x="53.0500" y="7.7682"
textLength="2.2500" font-size="1.3333" lengthAdjust="spacingAndGlyphs"
text-anchor="middle" opacity="0">H1</text>
<g class="stroked-text"><desc>H1</desc>
<path d="M52.2881 7.7231
L52.2881 6.7231
" />
<path d="M52.2881 7.1993
L52.8595 7.1993
" />
<path d="M52.8595 7.7231
L52.8595 6.7231
" />
<path d="M53.8595 7.7231
L53.2881 7.7231
" />
<path d="M53.5738 7.7231
L53.5738 6.7231
" />
<path d="M53.5738 6.7231
L53.4786 6.8659
" />
<path d="M53.4786 6.8659
L53.3833 6.9612
" />
<path d="M53.3833 6.9612
L53.2881 7.0088
" />
</g><text x="8.4750" y="11.9432"
textLength="10.2976" font-size="1.3333" lengthAdjust="spacingAndGlyphs"
text-anchor="middle" opacity="0">MountingHole</text>
<g class="stroked-text"><desc>MountingHole</desc>
<path d="M3.6893 11.8981
L3.6893 10.8981
" />
<path d="M3.6893 10.8981
L4.0226 11.6124
" />
<path d="M4.0226 11.6124
L4.3560 10.8981
" />
<path d="M4.3560 10.8981
L4.3560 11.8981
" />
<path d="M4.9750 11.8981
L4.8798 11.8504
" />
<path d="M4.8798 11.8504
L4.8321 11.8028
" />
<path d="M4.8321 11.8028
L4.7845 11.7076
" />
<path d="M4.7845 11.7076
L4.7845 11.4219
" />
<path d="M4.7845 11.4219
L4.8321 11.3266
" />
<path d="M4.8321 11.3266
L4.8798 11.2790
" />
<path d="M4.8798 11.2790
L4.9750 11.2314
" />
<path d="M4.9750 11.2314
L5.1179 11.2314
" />
<path d="M5.1179 11.2314
L5.2131 11.2790
" />
<path d="M5.2131 11.2790
L5.2607 11.3266
" />
<path d="M5.2607 11.3266
L5.3083 11.4219
" />
<path d="M5.3083 11.4219
L5.3083 11.7076
" />
<path d="M5.3083 11.7076
L5.2607 11.8028
" />
<path d="M5.2607 11.8028
L5.2131 11.8504
" />
<path d="M5.2131 11.8504
L5.1179 11.8981
" />
<path d="M5.1179 11.8981
L4.9750 11.8981
" />
<path d="M6.1655 11.2314
L6.1655 11.8981
" />
<path d="M5.7369 11.2314
L5.7369 11.7552
" />
<path d="M5.7369 11.7552
L5.7845 11.8504
" />
<path d="M5.7845 11.8504
L5.8798 11.8981
" />
<path d="M5.8798 11.8981
L6.0226 11.8981
" />
<path d="M6.0226 11.8981
L6.1179 11.8504
" />
<path d="M6.1179 11.8504
L6.1655 11.8028
" />
<path d="M6.6417 11.2314
L6.6417 11.8981
" />
<path d="M6.6417 11.3266
L6.6893 11.2790
" />
<path d="M6.6893 11.2790
L6.7845 11.2314
" />
<path d="M6.7845 11.2314
L6.9274 11.2314
" />
<path d="M6.9274 11.2314
L7.0226 11.2790
" />
<path d="M7.0226 11.2790
L7.0702 11.3743
" />
<path d="M7.0702 11.3743
L7.0702 11.8981
" />
<path d="M7.4036 11.2314
L7.7845 11.2314
" />
<path d="M7.5464 10.8981
L7.5464 11.7552
" />
<path d="M7.5464 11.7552
L7.5940 11.8504
" />
<path d="M7.5940 11.8504
L7.6893 11.8981
" />
<path d="M7.6893 11.8981
L7.7845 11.8981
" />
<path d="M8.1179 11.8981
L8.1179 11.2314
" />
<path d="M8.1179 10.8981
L8.0702 10.9457
" />
<path d="M8.0702 10.9457
L8.1179 10.9933
" />
<path d="M8.1179 10.9933
L8.1655 10.9457
" />
<path d="M8.1655 10.9457
L8.1179 10.8981
" />
<path d="M8.1179 10.8981
L8.1179 10.9933
" />
<path d="M8.5940 11.2314
L8.5940 11.8981
" />
<path d="M8.5940 11.3266
L8.6417 11.2790
" />
<path d="M8.6417 11.2790
L8.7369 11.2314
" />
<path d="M8.7369 11.2314
L8.8798 11.2314
" />
<path d="M8.8798 11.2314
L8.9750 11.2790
" />
<path d="M8.9750 11.2790
L9.0226 11.3743
" />
<path d="M9.0226 11.3743
L9.0226 11.8981
" />
<path d="M9.9274 11.2314
L9.9274 12.0409
" />
<path d="M9.9274 12.0409
L9.8798 12.1362
" />
<path d="M9.8798 12.1362
L9.8321 12.1838
" />
<path d="M9.8321 12.1838
L9.7369 12.2314
" />
<path d="M9.7369 12.2314
L9.5940 12.2314
" />
<path d="M9.5940 12.2314
L9.4988 12.1838
" />
<path d="M9.9274 11.8504
L9.8321 11.8981
" />
<path d="M9.8321 11.8981
L9.6417 11.8981
" />
<path d="M9.6417 11.8981
L9.5464 11.8504
" />
<path d="M9.5464 11.8504
L9.4988 11.8028
" />
<path d="M9.4988 11.8028
L9.4512 11.7076
" />
<path d="M9.4512 11.7076
L9.4512 11.4219
" />
<path d="M9.4512 11.4219
L9.4988 11.3266
" />
<path d="M9.4988 11.3266
L9.5464 11.2790
" />
<path d="M9.5464 11.2790
L9.6417 11.2314
" />
<path d="M9.6417 11.2314
L9.8321 11.2314
" />
<path d="M9.8321 11.2314
L9.9274 11.2790
" />
<path d="M10.4036 11.8981
L10.4036 10.8981
" />
<path d="M10.4036 11.3743
L10.9750 11.3743
" />
<path d="M10.9750 11.8981
L10.9750 10.8981
" />
<path d="M11.5940 11.8981
L11.4988 11.8504
" />
<path d="M11.4988 11.8504
L11.4512 11.8028
" />
<path d="M11.4512 11.8028
L11.4036 11.7076
" />
<path d="M11.4036 11.7076
L11.4036 11.4219
" />
<path d="M11.4036 11.4219
L11.4512 11.3266
" />
<path d="M11.4512 11.3266
L11.4988 11.2790
" />
<path d="M11.4988 11.2790
L11.5940 11.2314
" />
<path d="M11.5940 11.2314
L11.7369 11.2314
" />
<path d="M11.7369 11.2314
L11.8321 11.2790
" />
<path d="M11.8321 11.2790
L11.8798 11.3266
" />
<path d="M11.8798 11.3266
L11.9274 11.4219
" />
<path d="M11.9274 11.4219
L11.9274 11.7076
" />
<path d="M11.9274 11.7076
L11.8798 11.8028
" />
<path d="M11.8798 11.8028
L11.8321 11.8504
" />
<path d="M11.8321 11.8504
L11.7369 11.8981
" />
<path d="M11.7369 11.8981
L11.5940 11.8981
" />
<path d="M12.4988 11.8981
L12.4036 11.8504
" />
<path d="M12.4036 11.8504
L12.3560 11.7552
" />
<path d="M12.3560 11.7552
L12.3560 10.8981
" />
<path d="M13.2607 11.8504
L13.1655 11.8981
" />
<path d="M13.1655 11.8981
L12.9750 11.8981
" />
<path d="M12.9750 11.8981
L12.8798 11.8504
" />
<path d="M12.8798 11.8504
L12.8321 11.7552
" />
<path d="M12.8321 11.7552
L12.8321 11.3743
" />
<path d="M12.8321 11.3743
L12.8798 11.2790
" />
<path d="M12.8798 11.2790
L12.9750 11.2314
" />
<path d="M12.9750 11.2314
L13.1655 11.2314
" />
<path d="M13.1655 11.2314
L13.2607 11.2790
" />
<path d="M13.2607 11.2790
L13.3083 11.3743
" />
<path d="M13.3083 11.3743
L13.3083 11.4695
" />
<path d="M13.3083 11.4695
L12.8321 11.5647
" />
</g><text x="8.4750" y="7.7432"
textLength="2.2500" font-size="1.3333" lengthAdjust="spacingAndGlyphs"
text-anchor="middle" opacity="0">H2</text>
<g class="stroked-text"><desc>H2</desc>
<path d="M7.7131 7.6981
L7.7131 6.6981
" />
<path d="M7.7131 7.1743
L8.2845 7.1743
" />
<path d="M8.2845 7.6981
L8.2845 6.6981
" />
<path d="M8.7131 6.7933
L8.7607 6.7457
" />
<path d="M8.7607 6.7457
L8.8560 6.6981
" />
<path d="M8.8560 6.6981
L9.0940 6.6981
" />
<path d="M9.0940 6.6981
L9.1893 6.7457
" />
<path d="M9.1893 6.7457
L9.2369 6.7933
" />
<path d="M9.2369 6.7933
L9.2845 6.8885
" />
<path d="M9.2845 6.8885
L9.2845 6.9838
" />
<path d="M9.2845 6.9838
L9.2369 7.1266
" />
<path d="M9.2369 7.1266
L8.6655 7.6981
" />
<path d="M8.6655 7.6981
L9.2845 7.6981
" />
</g><text x="53.1000" y="86.9682"
textLength="10.2976" font-size="1.3333" lengthAdjust="spacingAndGlyphs"
text-anchor="middle" opacity="0">MountingHole</text>
<g class="stroked-text"><desc>MountingHole</desc>
<path d="M48.3143 86.9231
L48.3143 85.9231
" />
<path d="M48.3143 85.9231
L48.6476 86.6374
" />
<path d="M48.6476 86.6374
L48.9810 85.9231
" />
<path d="M48.9810 85.9231
L48.9810 86.9231
" />
<path d="M49.6000 86.9231
L49.5048 86.8755
" />
<path d="M49.5048 86.8755
L49.4571 86.8278
" />
<path d="M49.4571 86.8278
L49.4095 86.7326
" />
<path d="M49.4095 86.7326
L49.4095 86.4469
" />
<path d="M49.4095 86.4469
L49.4571 86.3516
" />
<path d="M49.4571 86.3516
L49.5048 86.3040
" />
<path d="M49.5048 86.3040
L49.6000 86.2564
" />
<path d="M49.6000 86.2564
L49.7429 86.2564
" />
<path d="M49.7429 86.2564
L49.8381 86.3040
" />
<path d="M49.8381 86.3040
L49.8857 86.3516
" />
<path d="M49.8857 86.3516
L49.9333 86.4469
" />
<path d="M49.9333 86.4469
L49.9333 86.7326
" />
<path d="M49.9333 86.7326
L49.8857 86.8278
" />
<path d="M49.8857 86.8278
L49.8381 86.8755
" />
<path d="M49.8381 86.8755
L49.7429 86.9231
" />
<path d="M49.7429 86.9231
L49.6000 86.9231
" />
<path d="M50.7905 86.2564
L50.7905 86.9231
" />
<path d="M50.3619 86.2564
L50.3619 86.7802
" />
<path d="M50.3619 86.7802
L50.4095 86.8755
" />
<path d="M50.4095 86.8755
L50.5048 86.9231
" />
<path d="M50.5048 86.9231
L50.6476 86.9231
" />
<path d="M50.6476 86.9231
L50.7429 86.8755
" />
<path d="M50.7429 86.8755
L50.7905 86.8278
" />
<path d="M51.2667 86.2564
L51.2667 86.9231
" />
<path d="M51.2667 86.3516
L51.3143 86.3040
" />
<path d="M51.3143 86.3040
L51.4095 86.2564
" />
<path d="M51.4095 86.2564
L51.5524 86.2564
" />
<path d="M51.5524 86.2564
L51.6476 86.3040
" />
<path d="M51.6476 86.3040
L51.6952 86.3993
" />
<path d="M51.6952 86.3993
L51.6952 86.9231
" />
<path d="M52.0286 86.2564
L52.4095 86.2564
" />
<path d="M52.1714 85.9231
L52.1714 86.7802
" />
<path d="M52.1714 86.7802
L52.2190 86.8755
" />
<path d="M52.2190 86.8755
L52.3143 86.9231
" />
<path d="M52.3143 86.9231
L52.4095 86.9231
" />
<path d="M52.7429 86.9231
L52.7429 86.2564
" />
<path d="M52.7429 85.9231
L52.6952 85.9707
" />
<path d="M52.6952 85.9707
L52.7429 86.0183
" />
<path d="M52.7429 86.0183
L52.7905 85.9707
" />
<path d="M52.7905 85.9707
L52.7429 85.9231
" />
<path d="M52.7429 85.9231
L52.7429 86.0183
" />
<path d="M53.2190 86.2564
L53.2190 86.9231
" />
<path d="M53.2190 86.3516
L53.2667 86.3040
" />
<path d="M53.2667 86.3040
L53.3619 86.2564
" />
<path d="M53.3619 86.2564
L53.5048 86.2564
" />
<path d="M53.5048 86.2564
L53.6000 86.3040
" />
<path d="M53.6000 86.3040
L53.6476 86.3993
" />
<path d="M53.6476 86.3993
L53.6476 86.9231
" />
<path d="M54.5524 86.2564
L54.5524 87.0659
" />
<path d="M54.5524 87.0659
L54.5048 87.1612
" />
<path d="M54.5048 87.1612
L54.4571 87.2088
" />
<path d="M54.4571 87.2088
L54.3619 87.2564
" />
<path d="M54.3619 87.2564
L54.2190 87.2564
" />
<path d="M54.2190 87.2564
L54.1238 87.2088
" />
<path d="M54.5524 86.8755
L54.4571 86.9231
" />
<path d="M54.4571 86.9231
L54.2667 86.9231
" />
<path d="M54.2667 86.9231
L54.1714 86.8755
" />
<path d="M54.1714 86.8755
L54.1238 86.8278
" />
<path d="M54.1238 86.8278
L54.0762 86.7326
" />
<path d="M54.0762 86.7326
L54.0762 86.4469
" />
<path d="M54.0762 86.4469
L54.1238 86.3516
" />
<path d="M54.1238 86.3516
L54.1714 86.3040
" />
<path d="M54.1714 86.3040
L54.2667 86.2564
" />
<path d="M54.2667 86.2564
L54.4571 86.2564
" />
<path d="M54.4571 86.2564
L54.5524 86.3040
" />
<path d="M55.0286 86.9231
L55.0286 85.9231
" />
<path d="M55.0286 86.3993
L55.6000 86.3993
" />
<path d="M55.6000 86.9231
L55.6000 85.9231
" />
<path d="M56.2190 86.9231
L56.1238 86.8755
" />
<path d="M56.1238 86.8755
L56.0762 86.8278
" />
<path d="M56.0762 86.8278
L56.0286 86.7326
" />
<path d="M56.0286 86.7326
L56.0286 86.4469
" />
<path d="M56.0286 86.4469
L56.0762 86.3516
" />
<path d="M56.0762 86.3516
L56.1238 86.3040
" />
<path d="M56.1238 86.3040
L56.2190 86.2564
" />
<path d="M56.2190 86.2564
L56.3619 86.2564
" />
<path d="M56.3619 86.2564
L56.4571 86.3040
" />
<path d="M56.4571 86.3040
L56.5048 86.3516
" />
<path d="M56.5048 86.3516
L56.5524 86.4469
" />
<path d="M56.5524 86.4469
L56.5524 86.7326
" />
<path d="M56.5524 86.7326
L56.5048 86.8278
" />
<path d="M56.5048 86.8278
L56.4571 86.8755
" />
<path d="M56.4571 86.8755
L56.3619 86.9231
" />
<path d="M56.3619 86.9231
L56.2190 86.9231
" />
<path d="M57.1238 86.9231
L57.0286 86.8755
" />
<path d="M57.0286 86.8755
L56.9810 86.7802
" />
<path d="M56.9810 86.7802
L56.9810 85.9231
" />
<path d="M57.8857 86.8755
L57.7905 86.9231
" />
<path d="M57.7905 86.9231
L57.6000 86.9231
" />
<path d="M57.6000 86.9231
L57.5048 86.8755
" />
<path d="M57.5048 86.8755
L57.4571 86.7802
" />
<path d="M57.4571 86.7802
L57.4571 86.3993
" />
<path d="M57.4571 86.3993
L57.5048 86.3040
" />
<path d="M57.5048 86.3040
L57.6000 86.2564
" />
<path d="M57.6000 86.2564
L57.7905 86.2564
" />
<path d="M57.7905 86.2564
L57.8857 86.3040
" />
<path d="M57.8857 86.3040
L57.9333 86.3993
" />
<path d="M57.9333 86.3993
L57.9333 86.4945
" />
<path d="M57.9333 86.4945
L57.4571 86.5897
" />
</g><text x="55.0750" y="81.7682"
textLength="2.2500" font-size="1.3333" lengthAdjust="spacingAndGlyphs"
text-anchor="middle" opacity="0">H3</text>
<g class="stroked-text"><desc>H3</desc>
<path d="M54.3131 81.7231
L54.3131 80.7231
" />
<path d="M54.3131 81.1993
L54.8845 81.1993
" />
<path d="M54.8845 81.7231
L54.8845 80.7231
" />
<path d="M55.2655 80.7231
L55.8845 80.7231
" />
<path d="M55.8845 80.7231
L55.5512 81.1040
" />
<path d="M55.5512 81.1040
L55.6940 81.1040
" />
<path d="M55.6940 81.1040
L55.7893 81.1516
" />
<path d="M55.7893 81.1516
L55.8369 81.1993
" />
<path d="M55.8369 81.1993
L55.8845 81.2945
" />
<path d="M55.8845 81.2945
L55.8845 81.5326
" />
<path d="M55.8845 81.5326
L55.8369 81.6278
" />
<path d="M55.8369 81.6278
L55.7893 81.6754
" />
<path d="M55.7893 81.6754
L55.6940 81.7231
" />
<path d="M55.6940 81.7231
L55.4083 81.7231
" />
<path d="M55.4083 81.7231
L55.3131 81.6754
" />
<path d="M55.3131 81.6754
L55.2655 81.6278
" />
</g><text x="32.3750" y="62.5182"
textLength="1.9643" font-size="1.3333" lengthAdjust="spacingAndGlyphs"
text-anchor="middle" opacity="0">J4</text>
<g class="stroked-text"><desc>J4</desc>
<path d="M32.0417 61.4731
L32.0417 62.1874
" />
<path d="M32.0417 62.1874
L31.9940 62.3302
" />
<path d="M31.9940 62.3302
L31.8988 62.4254
" />
<path d="M31.8988 62.4254
L31.7560 62.4731
" />
<path d="M31.7560 62.4731
L31.6607 62.4731
" />
<path d="M32.9464 61.8064
L32.9464 62.4731
" />
<path d="M32.7083 61.4254
L32.4702 62.1397
" />
<path d="M32.4702 62.1397
L33.0893 62.1397
" />
</g><g transform="rotate(-90.000000 54.6450 48.1982)">
<text x="54.6450" y="48.6982"
textLength="3.9167" font-size="1.3333" lengthAdjust="spacingAndGlyphs"
text-anchor="middle" opacity="0">100k</text>
</g>
<g class="stroked-text"><desc>100k</desc>
<path d="M55.0998 49.2697
L55.0998 49.8411
" />
<path d="M55.0998 49.5554
L54.0998 49.5554
" />
<path d="M54.0998 49.5554
L54.2427 49.6506
" />
<path d="M54.2427 49.6506
L54.3379 49.7459
" />
<path d="M54.3379 49.7459
L54.3855 49.8411
" />
<path d="M54.0998 48.6506
L54.0998 48.5554
" />
<path d="M54.0998 48.5554
L54.1474 48.4602
" />
<path d="M54.1474 48.4602
L54.1951 48.4125
" />
<path d="M54.1951 48.4125
L54.2903 48.3649
" />
<path d="M54.2903 48.3649
L54.4808 48.3173
" />
<path d="M54.4808 48.3173
L54.7189 48.3173
" />
<path d="M54.7189 48.3173
L54.9093 48.3649
" />
<path d="M54.9093 48.3649
L55.0046 48.4125
" />
<path d="M55.0046 48.4125
L55.0522 48.4602
" />
<path d="M55.0522 48.4602
L55.0998 48.5554
" />
<path d="M55.0998 48.5554
L55.0998 48.6506
" />
<path d="M55.0998 48.6506
L55.0522 48.7459
" />
<path d="M55.0522 48.7459
L55.0046 48.7935
" />
<path d="M55.0046 48.7935
L54.9093 48.8411
" />
<path d="M54.9093 48.8411
L54.7189 48.8887
" />
<path d="M54.7189 48.8887
L54.4808 48.8887
" />
<path d="M54.4808 48.8887
L54.2903 48.8411
" />
<path d="M54.2903 48.8411
L54.1951 48.7935
" />
<path d="M54.1951 48.7935
L54.1474 48.7459
" />
<path d="M54.1474 48.7459
L54.0998 48.6506
" />
<path d="M54.0998 47.6982
L54.0998 47.6030
" />
<path d="M54.0998 47.6030
L54.1474 47.5078
" />
<path d="M54.1474 47.5078
L54.1951 47.4602
" />
<path d="M54.1951 47.4602
L54.2903 47.4125
" />
<path d="M54.2903 47.4125
L54.4808 47.3649
" />
<path d="M54.4808 47.3649
L54.7189 47.3649
" />
<path d="M54.7189 47.3649
L54.9093 47.4125
" />
<path d="M54.9093 47.4125
L55.0046 47.4602
" />
<path d="M55.0046 47.4602
L55.0522 47.5078
" />
<path d="M55.0522 47.5078
L55.0998 47.6030
" />
<path d="M55.0998 47.6030
L55.0998 47.6982
" />
<path d="M55.0998 47.6982
L55.0522 47.7935
" />
<path d="M55.0522 47.7935
L55.0046 47.8411
" />
<path d="M55.0046 47.8411
L54.9093 47.8887
" />
<path d="M54.9093 47.8887
L54.7189 47.9363
" />
<path d="M54.7189 47.9363
L54.4808 47.9363
" />
<path d="M54.4808 47.9363
L54.2903 47.8887
" />
<path d="M54.2903 47.8887
L54.1951 47.8411
" />
<path d="M54.1951 47.8411
L54.1474 47.7935
" />
<path d="M54.1474 47.7935
L54.0998 47.6982
" />
<path d="M55.0998 46.9363
L54.0998 46.9363
" />
<path d="M54.7189 46.8411
L55.0998 46.5554
" />
<path d="M54.4332 46.5554
L54.8141 46.9363
" />
</g><g transform="rotate(-90.000000 50.8050 48.1982)">
<text x="50.8050" y="48.6982"
textLength="2.2024" font-size="1.3333" lengthAdjust="spacingAndGlyphs"
text-anchor="middle" opacity="0">R1</text>
</g>
<g class="stroked-text"><desc>R1</desc>
<path d="M51.2598 48.3649
L50.7836 48.6982
" />
<path d="M51.2598 48.9363
L50.2598 48.9363
" />
<path d="M50.2598 48.9363
L50.2598 48.5554
" />
<path d="M50.2598 48.5554
L50.3074 48.4602
" />
<path d="M50.3074 48.4602
L50.3551 48.4125
" />
<path d="M50.3551 48.4125
L50.4503 48.3649
" />
<path d="M50.4503 48.3649
L50.5932 48.3649
" />
<path d="M50.5932 48.3649
L50.6884 48.4125
" />
<path d="M50.6884 48.4125
L50.7360 48.4602
" />
<path d="M50.7360 48.4602
L50.7836 48.5554
" />
<path d="M50.7836 48.5554
L50.7836 48.9363
" />
<path d="M51.2598 47.4125
L51.2598 47.9840
" />
<path d="M51.2598 47.6982
L50.2598 47.6982
" />
<path d="M50.2598 47.6982
L50.4027 47.7935
" />
<path d="M50.4027 47.7935
L50.4979 47.8887
" />
<path d="M50.4979 47.8887
L50.5455 47.9840
" />
</g><g transform="rotate(-90.000000 46.0550 51.5782)">
<text x="46.0550" y="52.0782"
textLength="8.3452" font-size="1.3333" lengthAdjust="spacingAndGlyphs"
text-anchor="middle" opacity="0">D_Schottky</text>
</g>
<g class="stroked-text"><desc>D_Schottky</desc>
<path d="M46.5098 55.3878
L45.5098 55.3878
" />
<path d="M45.5098 55.3878
L45.5098 55.1497
" />
<path d="M45.5098 55.1497
L45.5574 55.0068
" />
<path d="M45.5574 55.0068
L45.6527 54.9116
" />
<path d="M45.6527 54.9116
L45.7479 54.8640
" />
<path d="M45.7479 54.8640
L45.9384 54.8163
" />
<path d="M45.9384 54.8163
L46.0812 54.8163
" />
<path d="M46.0812 54.8163
L46.2717 54.8640
" />
<path d="M46.2717 54.8640
L46.3670 54.9116
" />
<path d="M46.3670 54.9116
L46.4622 55.0068
" />
<path d="M46.4622 55.0068
L46.5098 55.1497
" />
<path d="M46.5098 55.1497
L46.5098 55.3878
" />
<path d="M46.6051 54.6259
L46.6051 53.8640
" />
<path d="M46.4622 53.6735
L46.5098 53.5306
" />
<path d="M46.5098 53.5306
L46.5098 53.2925
" />
<path d="M46.5098 53.2925
L46.4622 53.1973
" />
<path d="M46.4622 53.1973
L46.4146 53.1497
" />
<path d="M46.4146 53.1497
L46.3193 53.1021
" />
<path d="M46.3193 53.1021
L46.2241 53.1021
" />
<path d="M46.2241 53.1021
L46.1289 53.1497
" />
<path d="M46.1289 53.1497
L46.0812 53.1973
" />
<path d="M46.0812 53.1973
L46.0336 53.2925
" />
<path d="M46.0336 53.2925
L45.9860 53.4830
" />
<path d="M45.9860 53.4830
L45.9384 53.5782
" />
<path d="M45.9384 53.5782
L45.8908 53.6259
" />
<path d="M45.8908 53.6259
L45.7955 53.6735
" />
<path d="M45.7955 53.6735
L45.7003 53.6735
" />
<path d="M45.7003 53.6735
L45.6051 53.6259
" />
<path d="M45.6051 53.6259
L45.5574 53.5782
" />
<path d="M45.5574 53.5782
L45.5098 53.4830
" />
<path d="M45.5098 53.4830
L45.5098 53.2449
" />
<path d="M45.5098 53.2449
L45.5574 53.1021
" />
<path d="M46.4622 52.2449
L46.5098 52.3402
" />
<path d="M46.5098 52.3402
L46.5098 52.5306
" />
<path d="M46.5098 52.5306
L46.4622 52.6259
" />
<path d="M46.4622 52.6259
L46.4146 52.6735
" />
<path d="M46.4146 52.6735
L46.3193 52.7211
" />
<path d="M46.3193 52.7211
L46.0336 52.7211
" />
<path d="M46.0336 52.7211
L45.9384 52.6735
" />
<path d="M45.9384 52.6735
L45.8908 52.6259
" />
<path d="M45.8908 52.6259
L45.8432 52.5306
" />
<path d="M45.8432 52.5306
L45.8432 52.3402
" />
<path d="M45.8432 52.3402
L45.8908 52.2449
" />
<path d="M46.5098 51.8163
L45.5098 51.8163
" />
<path d="M46.5098 51.3878
L45.9860 51.3878
" />
<path d="M45.9860 51.3878
L45.8908 51.4354
" />
<path d="M45.8908 51.4354
L45.8432 51.5306
" />
<path d="M45.8432 51.5306
L45.8432 51.6735
" />
<path d="M45.8432 51.6735
L45.8908 51.7687
" />
<path d="M45.8908 51.7687
L45.9384 51.8163
" />
<path d="M46.5098 50.7687
L46.4622 50.8640
" />
<path d="M46.4622 50.8640
L46.4146 50.9116
" />
<path d="M46.4146 50.9116
L46.3193 50.9592
" />
<path d="M46.3193 50.9592
L46.0336 50.9592
" />
<path d="M46.0336 50.9592
L45.9384 50.9116
" />
<path d="M45.9384 50.9116
L45.8908 50.8640
" />
<path d="M45.8908 50.8640
L45.8432 50.7687
" />
<path d="M45.8432 50.7687
L45.8432 50.6259
" />
<path d="M45.8432 50.6259
L45.8908 50.5306
" />
<path d="M45.8908 50.5306
L45.9384 50.4830
" />
<path d="M45.9384 50.4830
L46.0336 50.4354
" />
<path d="M46.0336 50.4354
L46.3193 50.4354
" />
<path d="M46.3193 50.4354
L46.4146 50.4830
" />
<path d="M46.4146 50.4830
L46.4622 50.5306
" />
<path d="M46.4622 50.5306
L46.5098 50.6259
" />
<path d="M46.5098 50.6259
L46.5098 50.7687
" />
<path d="M45.8432 50.1497
L45.8432 49.7687
" />
<path d="M45.5098 50.0068
L46.3670 50.0068
" />
<path d="M46.3670 50.0068
L46.4622 49.9592
" />
<path d="M46.4622 49.9592
L46.5098 49.8640
" />
<path d="M46.5098 49.8640
L46.5098 49.7687
" />
<path d="M45.8432 49.5782
L45.8432 49.1973
" />
<path d="M45.5098 49.4354
L46.3670 49.4354
" />
<path d="M46.3670 49.4354
L46.4622 49.3878
" />
<path d="M46.4622 49.3878
L46.5098 49.2925
" />
<path d="M46.5098 49.2925
L46.5098 49.1973
" />
<path d="M46.5098 48.8640
L45.5098 48.8640
" />
<path d="M46.1289 48.7687
L46.5098 48.4830
" />
<path d="M45.8432 48.4830
L46.2241 48.8640
" />
<path d="M45.8432 48.1497
L46.5098 47.9116
" />
<path d="M45.8432 47.6735
L46.5098 47.9116
" />
<path d="M46.5098 47.9116
L46.7479 48.0068
" />
<path d="M46.7479 48.0068
L46.7955 48.0544
" />
<path d="M46.7955 48.0544
L46.8432 48.1497
" />
</g></g>
<g style="fill:none; 
stroke:#000000; stroke-width:0.0912; stroke-opacity:1; 
stroke-linecap:round; stroke-linejoin:round;">
<g transform="rotate(-90.000000 47.9750 51.8062)">
<text x="47.9750" y="52.1103"
textLength="1.3390" font-size="0.8107" lengthAdjust="spacingAndGlyphs"
text-anchor="middle" opacity="0">D1</text>
</g>
<g class="stroked-text"><desc>D1</desc>
<path d="M48.2515 52.2550
L47.6435 52.2550
" />
<path d="M47.6435 52.2550
L47.6435 52.1103
" />
<path d="M47.6435 52.1103
L47.6725 52.0234
" />
<path d="M47.6725 52.0234
L47.7304 51.9655
" />
<path d="M47.7304 51.9655
L47.7883 51.9365
" />
<path d="M47.7883 51.9365
L47.9041 51.9076
" />
<path d="M47.9041 51.9076
L47.9910 51.9076
" />
<path d="M47.9910 51.9076
L48.1068 51.9365
" />
<path d="M48.1068 51.9365
L48.1647 51.9655
" />
<path d="M48.1647 51.9655
L48.2226 52.0234
" />
<path d="M48.2226 52.0234
L48.2515 52.1103
" />
<path d="M48.2515 52.1103
L48.2515 52.2550
" />
<path d="M48.2515 51.3285
L48.2515 51.6760
" />
<path d="M48.2515 51.5022
L47.6435 51.5022
" />
<path d="M47.6435 51.5022
L47.7304 51.5602
" />
<path d="M47.7304 51.5602
L47.7883 51.6181
" />
<path d="M47.7883 51.6181
L47.8172 51.6760
" />
</g></g>
<g style="fill:none; 
stroke:#000000; stroke-width:0.1500; stroke-opacity:1; 
stroke-linecap:round; stroke-linejoin:round;">
<g transform="rotate(-90.000000 49.7250 47.7682)">
<text x="49.7250" y="48.2682"
textLength="1.2500" font-size="1.3333" lengthAdjust="spacingAndGlyphs"
text-anchor="middle" opacity="0">K</text>
</g>
<g class="stroked-text"><desc>K</desc>
<path d="M50.1798 48.0302
L49.1798 48.0302
" />
<path d="M50.1798 47.4587
L49.6084 47.8873
" />
<path d="M49.1798 47.4587
L49.7512 48.0302
" />
</g><g transform="rotate(-270.000000 60.5950 28.5732)">
<text x="60.5950" y="29.0732"
textLength="2.2500" font-size="1.3333" lengthAdjust="spacingAndGlyphs"
text-anchor="middle" opacity="0">U4</text>
</g>
<g class="stroked-text"><desc>U4</desc>
<path d="M61.1402 27.8113
L60.3307 27.8113
" />
<path d="M60.3307 27.8113
L60.2354 27.8590
" />
<path d="M60.2354 27.8590
L60.1878 27.9066
" />
<path d="M60.1878 27.9066
L60.1402 28.0018
" />
<path d="M60.1402 28.0018
L60.1402 28.1923
" />
<path d="M60.1402 28.1923
L60.1878 28.2875
" />
<path d="M60.1878 28.2875
L60.2354 28.3352
" />
<path d="M60.2354 28.3352
L60.3307 28.3828
" />
<path d="M60.3307 28.3828
L61.1402 28.3828
" />
<path d="M60.8068 29.2875
L60.1402 29.2875
" />
<path d="M61.1878 29.0494
L60.4735 28.8113
" />
<path d="M60.4735 28.8113
L60.4735 29.4304
" />
</g><g transform="rotate(-180.000000 54.7974 74.3718)">
<text x="54.7974" y="74.8718"
textLength="2.2500" font-size="1.3333" lengthAdjust="spacingAndGlyphs"
text-anchor="middle" opacity="0">U5</text>
</g>
<g class="stroked-text"><desc>U5</desc>
<path d="M55.5593 74.9170
L55.5593 74.1075
" />
<path d="M55.5593 74.1075
L55.5117 74.0123
" />
<path d="M55.5117 74.0123
L55.4641 73.9646
" />
<path d="M55.4641 73.9646
L55.3688 73.9170
" />
<path d="M55.3688 73.9170
L55.1784 73.9170
" />
<path d="M55.1784 73.9170
L55.0831 73.9646
" />
<path d="M55.0831 73.9646
L55.0355 74.0123
" />
<path d="M55.0355 74.0123
L54.9879 74.1075
" />
<path d="M54.9879 74.1075
L54.9879 74.9170
" />
<path d="M54.0355 74.9170
L54.5117 74.9170
" />
<path d="M54.5117 74.9170
L54.5593 74.4408
" />
<path d="M54.5593 74.4408
L54.5117 74.4885
" />
<path d="M54.5117 74.4885
L54.4164 74.5361
" />
<path d="M54.4164 74.5361
L54.1784 74.5361
" />
<path d="M54.1784 74.5361
L54.0831 74.4885
" />
<path d="M54.0831 74.4885
L54.0355 74.4408
" />
<path d="M54.0355 74.4408
L53.9879 74.3456
" />
<path d="M53.9879 74.3456
L53.9879 74.1075
" />
<path d="M53.9879 74.1075
L54.0355 74.0123
" />
<path d="M54.0355 74.0123
L54.0831 73.9646
" />
<path d="M54.0831 73.9646
L54.1784 73.9170
" />
<path d="M54.1784 73.9170
L54.4164 73.9170
" />
<path d="M54.4164 73.9170
L54.5117 73.9646
" />
<path d="M54.5117 73.9646
L54.5593 74.0123
" />
</g><text x="61.1000" y="57.9932"
textLength="3.0595" font-size="1.3333" lengthAdjust="spacingAndGlyphs"
text-anchor="middle" opacity="0">RV1</text>
<g class="stroked-text"><desc>RV1</desc>
<path d="M60.5048 57.9481
L60.1714 57.4719
" />
<path d="M59.9333 57.9481
L59.9333 56.9481
" />
<path d="M59.9333 56.9481
L60.3143 56.9481
" />
<path d="M60.3143 56.9481
L60.4095 56.9957
" />
<path d="M60.4095 56.9957
L60.4571 57.0433
" />
<path d="M60.4571 57.0433
L60.5048 57.1385
" />
<path d="M60.5048 57.1385
L60.5048 57.2814
" />
<path d="M60.5048 57.2814
L60.4571 57.3766
" />
<path d="M60.4571 57.3766
L60.4095 57.4243
" />
<path d="M60.4095 57.4243
L60.3143 57.4719
" />
<path d="M60.3143 57.4719
L59.9333 57.4719
" />
<path d="M60.7905 56.9481
L61.1238 57.9481
" />
<path d="M61.1238 57.9481
L61.4571 56.9481
" />
<path d="M62.3143 57.9481
L61.7429 57.9481
" />
<path d="M62.0286 57.9481
L62.0286 56.9481
" />
<path d="M62.0286 56.9481
L61.9333 57.0909
" />
<path d="M61.9333 57.0909
L61.8381 57.1862
" />
<path d="M61.8381 57.1862
L61.7429 57.2338
" />
</g><g transform="rotate(-90.000000 13.3000 35.9932)">
<text x="13.3000" y="36.4932"
textLength="3.2976" font-size="1.3333" lengthAdjust="spacingAndGlyphs"
text-anchor="middle" opacity="0">SW3</text>
</g>
<g class="stroked-text"><desc>SW3</desc>
<path d="M13.7072 37.3266
L13.7548 37.1837
" />
<path d="M13.7548 37.1837
L13.7548 36.9456
" />
<path d="M13.7548 36.9456
L13.7072 36.8504
" />
<path d="M13.7072 36.8504
L13.6596 36.8028
" />
<path d="M13.6596 36.8028
L13.5643 36.7552
" />
<path d="M13.5643 36.7552
L13.4691 36.7552
" />
<path d="M13.4691 36.7552
L13.3739 36.8028
" />
<path d="M13.3739 36.8028
L13.3262 36.8504
" />
<path d="M13.3262 36.8504
L13.2786 36.9456
" />
<path d="M13.2786 36.9456
L13.2310 37.1361
" />
<path d="M13.2310 37.1361
L13.1834 37.2313
" />
<path d="M13.1834 37.2313
L13.1358 37.2790
" />
<path d="M13.1358 37.2790
L13.0405 37.3266
" />
<path d="M13.0405 37.3266
L12.9453 37.3266
" />
<path d="M12.9453 37.3266
L12.8501 37.2790
" />
<path d="M12.8501 37.2790
L12.8024 37.2313
" />
<path d="M12.8024 37.2313
L12.7548 37.1361
" />
<path d="M12.7548 37.1361
L12.7548 36.8980
" />
<path d="M12.7548 36.8980
L12.8024 36.7552
" />
<path d="M12.7548 36.4218
L13.7548 36.1837
" />
<path d="M13.7548 36.1837
L13.0405 35.9932
" />
<path d="M13.0405 35.9932
L13.7548 35.8028
" />
<path d="M13.7548 35.8028
L12.7548 35.5647
" />
<path d="M12.7548 35.2790
L12.7548 34.6599
" />
<path d="M12.7548 34.6599
L13.1358 34.9932
" />
<path d="M13.1358 34.9932
L13.1358 34.8504
" />
<path d="M13.1358 34.8504
L13.1834 34.7552
" />
<path d="M13.1834 34.7552
L13.2310 34.7075
" />
<path d="M13.2310 34.7075
L13.3262 34.6599
" />
<path d="M13.3262 34.6599
L13.5643 34.6599
" />
<path d="M13.5643 34.6599
L13.6596 34.7075
" />
<path d="M13.6596 34.7075
L13.7072 34.7552
" />
<path d="M13.7072 34.7552
L13.7548 34.8504
" />
<path d="M13.7548 34.8504
L13.7548 35.1361
" />
<path d="M13.7548 35.1361
L13.7072 35.2313
" />
<path d="M13.7072 35.2313
L13.6596 35.2790
" />
</g><g transform="rotate(-270.000000 49.9250 81.5682)">
<text x="49.9250" y="82.0682"
textLength="6.4881" font-size="1.3333" lengthAdjust="spacingAndGlyphs"
text-anchor="middle" opacity="0">Battery1</text>
</g>
<g class="stroked-text"><desc>Battery1</desc>
<path d="M49.9940 79.0206
L49.9464 79.1635
" />
<path d="M49.9464 79.1635
L49.8988 79.2111
" />
<path d="M49.8988 79.2111
L49.8035 79.2587
" />
<path d="M49.8035 79.2587
L49.6607 79.2587
" />
<path d="M49.6607 79.2587
L49.5654 79.2111
" />
<path d="M49.5654 79.2111
L49.5178 79.1635
" />
<path d="M49.5178 79.1635
L49.4702 79.0682
" />
<path d="M49.4702 79.0682
L49.4702 78.6873
" />
<path d="M49.4702 78.6873
L50.4702 78.6873
" />
<path d="M50.4702 78.6873
L50.4702 79.0206
" />
<path d="M50.4702 79.0206
L50.4226 79.1159
" />
<path d="M50.4226 79.1159
L50.3749 79.1635
" />
<path d="M50.3749 79.1635
L50.2797 79.2111
" />
<path d="M50.2797 79.2111
L50.1845 79.2111
" />
<path d="M50.1845 79.2111
L50.0892 79.1635
" />
<path d="M50.0892 79.1635
L50.0416 79.1159
" />
<path d="M50.0416 79.1159
L49.9940 79.0206
" />
<path d="M49.9940 79.0206
L49.9940 78.6873
" />
<path d="M49.4702 80.1159
L49.9940 80.1159
" />
<path d="M49.9940 80.1159
L50.0892 80.0682
" />
<path d="M50.0892 80.0682
L50.1368 79.9730
" />
<path d="M50.1368 79.9730
L50.1368 79.7825
" />
<path d="M50.1368 79.7825
L50.0892 79.6873
" />
<path d="M49.5178 80.1159
L49.4702 80.0206
" />
<path d="M49.4702 80.0206
L49.4702 79.7825
" />
<path d="M49.4702 79.7825
L49.5178 79.6873
" />
<path d="M49.5178 79.6873
L49.6130 79.6397
" />
<path d="M49.6130 79.6397
L49.7083 79.6397
" />
<path d="M49.7083 79.6397
L49.8035 79.6873
" />
<path d="M49.8035 79.6873
L49.8511 79.7825
" />
<path d="M49.8511 79.7825
L49.8511 80.0206
" />
<path d="M49.8511 80.0206
L49.8988 80.1159
" />
<path d="M50.1368 80.4492
L50.1368 80.8302
" />
<path d="M50.4702 80.5921
L49.6130 80.5921
" />
<path d="M49.6130 80.5921
L49.5178 80.6397
" />
<path d="M49.5178 80.6397
L49.4702 80.7349
" />
<path d="M49.4702 80.7349
L49.4702 80.8302
" />
<path d="M50.1368 81.0206
L50.1368 81.4016
" />
<path d="M50.4702 81.1635
L49.6130 81.1635
" />
<path d="M49.6130 81.1635
L49.5178 81.2111
" />
<path d="M49.5178 81.2111
L49.4702 81.3063
" />
<path d="M49.4702 81.3063
L49.4702 81.4016
" />
<path d="M49.5178 82.1159
L49.4702 82.0206
" />
<path d="M49.4702 82.0206
L49.4702 81.8302
" />
<path d="M49.4702 81.8302
L49.5178 81.7349
" />
<path d="M49.5178 81.7349
L49.6130 81.6873
" />
<path d="M49.6130 81.6873
L49.9940 81.6873
" />
<path d="M49.9940 81.6873
L50.0892 81.7349
" />
<path d="M50.0892 81.7349
L50.1368 81.8302
" />
<path d="M50.1368 81.8302
L50.1368 82.0206
" />
<path d="M50.1368 82.0206
L50.0892 82.1159
" />
<path d="M50.0892 82.1159
L49.9940 82.1635
" />
<path d="M49.9940 82.1635
L49.8988 82.1635
" />
<path d="M49.8988 82.1635
L49.8035 81.6873
" />
<path d="M49.4702 82.5921
L50.1368 82.5921
" />
<path d="M49.9464 82.5921
L50.0416 82.6397
" />
<path d="M50.0416 82.6397
L50.0892 82.6873
" />
<path d="M50.0892 82.6873
L50.1368 82.7825
" />
<path d="M50.1368 82.7825
L50.1368 82.8778
" />
<path d="M50.1368 83.1159
L49.4702 83.3540
" />
<path d="M50.1368 83.5921
L49.4702 83.3540
" />
<path d="M49.4702 83.3540
L49.2321 83.2587
" />
<path d="M49.2321 83.2587
L49.1845 83.2111
" />
<path d="M49.1845 83.2111
L49.1368 83.1159
" />
<path d="M49.4702 84.4968
L49.4702 83.9254
" />
<path d="M49.4702 84.2111
L50.4702 84.2111
" />
<path d="M50.4702 84.2111
L50.3273 84.1159
" />
<path d="M50.3273 84.1159
L50.2321 84.0206
" />
<path d="M50.2321 84.0206
L50.1845 83.9254
" />
</g><text x="65.6750" y="80.5682"
textLength="1.9643" font-size="1.3333" lengthAdjust="spacingAndGlyphs"
text-anchor="middle" opacity="0">J3</text>
<g class="stroked-text"><desc>J3</desc>
<path d="M65.3417 79.5231
L65.3417 80.2374
" />
<path d="M65.3417 80.2374
L65.2940 80.3802
" />
<path d="M65.2940 80.3802
L65.1988 80.4754
" />
<path d="M65.1988 80.4754
L65.0560 80.5231
" />
<path d="M65.0560 80.5231
L64.9607 80.5231
" />
<path d="M65.7226 79.5231
L66.3417 79.5231
" />
<path d="M66.3417 79.5231
L66.0083 79.9040
" />
<path d="M66.0083 79.9040
L66.1512 79.9040
" />
<path d="M66.1512 79.9040
L66.2464 79.9516
" />
<path d="M66.2464 79.9516
L66.2940 79.9993
" />
<path d="M66.2940 79.9993
L66.3417 80.0945
" />
<path d="M66.3417 80.0945
L66.3417 80.3326
" />
<path d="M66.3417 80.3326
L66.2940 80.4278
" />
<path d="M66.2940 80.4278
L66.2464 80.4754
" />
<path d="M66.2464 80.4754
L66.1512 80.5231
" />
<path d="M66.1512 80.5231
L65.8655 80.5231
" />
<path d="M65.8655 80.5231
L65.7702 80.4754
" />
<path d="M65.7702 80.4754
L65.7226 80.4278
" />
</g><g transform="rotate(-90.000000 13.3000 70.8265)">
<text x="13.3000" y="71.3265"
textLength="3.2976" font-size="1.3333" lengthAdjust="spacingAndGlyphs"
text-anchor="middle" opacity="0">SW4</text>
</g>
<g class="stroked-text"><desc>SW4</desc>
<path d="M13.7072 72.1599
L13.7548 72.0170
" />
<path d="M13.7548 72.0170
L13.7548 71.7789
" />
<path d="M13.7548 71.7789
L13.7072 71.6837
" />
<path d="M13.7072 71.6837
L13.6596 71.6361
" />
<path d="M13.6596 71.6361
L13.5643 71.5885
" />
<path d="M13.5643 71.5885
L13.4691 71.5885
" />
<path d="M13.4691 71.5885
L13.3739 71.6361
" />
<path d="M13.3739 71.6361
L13.3262 71.6837
" />
<path d="M13.3262 71.6837
L13.2786 71.7789
" />
<path d="M13.2786 71.7789
L13.2310 71.9694
" />
<path d="M13.2310 71.9694
L13.1834 72.0646
" />
<path d="M13.1834 72.0646
L13.1358 72.1123
" />
<path d="M13.1358 72.1123
L13.0405 72.1599
" />
<path d="M13.0405 72.1599
L12.9453 72.1599
" />
<path d="M12.9453 72.1599
L12.8501 72.1123
" />
<path d="M12.8501 72.1123
L12.8024 72.0646
" />
<path d="M12.8024 72.0646
L12.7548 71.9694
" />
<path d="M12.7548 71.9694
L12.7548 71.7313
" />
<path d="M12.7548 71.7313
L12.8024 71.5885
" />
<path d="M12.7548 71.2551
L13.7548 71.0170
" />
<path d="M13.7548 71.0170
L13.0405 70.8265
" />
<path d="M13.0405 70.8265
L13.7548 70.6361
" />
<path d="M13.7548 70.6361
L12.7548 70.3980
" />
<path d="M13.0882 69.5885
L13.7548 69.5885
" />
<path d="M12.7072 69.8265
L13.4215 70.0646
" />
<path d="M13.4215 70.0646
L13.4215 69.4456
" />
</g></g>
<g style="fill:none; 
stroke:#000000; stroke-width:0.1000; stroke-opacity:1; 
stroke-linecap:round; stroke-linejoin:round;">
<path d="M52.9250 53.6282
L52.9250 56.1683
" />
<circle cx="52.9250" cy="53.6282" r="0.8000" /> 
<path style="fill:none; 
stroke:#000000; stroke-width:0.1000; stroke-opacity:1; 
stroke-linecap:round; stroke-linejoin:round;fill:none"
d="M 19.3000,12.5765
7.3000,12.5765
7.3000,24.5765
19.3000,24.5765
Z" /> 
<path style="fill:none; 
stroke:#000000; stroke-width:0.1000; stroke-opacity:1; 
stroke-linecap:round; stroke-linejoin:round;fill:none"
d="M 19.3000,47.4099
7.3000,47.4099
7.3000,59.4099
19.3000,59.4099
Z" /> 
</g>
<g style="fill:none; 
stroke:#000000; stroke-width:0.1200; stroke-opacity:1; 
stroke-linecap:round; stroke-linejoin:round;">
<path d="M22.4350 5.5482
L43.4350 5.5482
" />
<path d="M22.4350 6.8482
L23.7350 5.5482
" />
<path d="M22.4350 56.5482
L22.4350 5.5482
" />
<path d="M43.4350 5.5482
L43.4350 56.5482
" />
<path d="M43.4350 56.5482
L22.4350 56.5482
" />
</g>
<g style="fill:none; 
stroke:#000000; stroke-width:0.1000; stroke-opacity:1; 
stroke-linecap:round; stroke-linejoin:round;">
<path d="M24.6900 59.7233
L36.1200 59.7233
" />
<path d="M24.6900 64.8032
L24.6900 59.7233
" />
<path d="M36.1200 59.7233
L37.3900 60.9932
" />
<path d="M37.3900 60.9932
L37.3900 64.8032
" />
<path d="M37.3900 64.8032
L24.6900 64.8032
" />
<path d="M52.7250 49.4682
L52.7250 46.9282
" />
<circle cx="52.7250" cy="49.4682" r="0.8000" /> 
<path d="M47.1750 50.0583
L47.1750 53.0983
" />
<path d="M47.1750 53.0983
L48.7750 53.0983
" />
<path d="M47.9750 47.7682
L47.9750 50.0583
" />
<path d="M47.9750 55.3882
L47.9750 53.0983
" />
<path d="M48.7750 50.0583
L47.1750 50.0583
" />
<path d="M48.7750 50.4142
L47.1750 50.4142
" />
<path d="M48.7750 50.5142
L47.1750 50.5142
" />
<path d="M48.7750 50.6142
L47.1750 50.6142
" />
<path d="M48.7750 53.0983
L48.7750 50.0583
" />
<path d="M57.1000 42.8432
L57.1000 60.7432
" />
<path d="M57.1000 60.7432
L67.6000 60.7432
" />
<path d="M67.6000 42.8432
L57.1000 42.8432
" />
<path d="M67.6000 55.2933
L72.6000 55.2933
" />
<path d="M67.6000 60.7432
L67.6000 42.8432
" />
<path d="M72.6000 48.2933
L67.6000 48.2933
" />
<path d="M72.6000 54.7933
L82.6000 54.7933
" />
<path d="M72.6000 55.2933
L72.6000 48.2933
" />
<path d="M82.6000 48.7933
L72.6000 48.7933
" />
<path d="M82.6000 54.7933
L82.6000 48.7933
" />
<path style="fill:none; 
stroke:#000000; stroke-width:0.1000; stroke-opacity:1; 
stroke-linecap:round; stroke-linejoin:round;fill:none"
d="M 19.3000,29.9932
7.3000,29.9932
7.3000,41.9932
19.3000,41.9932
Z" /> 
</g>
<g style="fill:none; 
stroke:#000000; stroke-width:0.1270; stroke-opacity:1; 
stroke-linecap:round; stroke-linejoin:round;">
<path d="M56.8000 4.0682
L67.8000 4.0682
" />
<path d="M56.8000 16.0682
L56.8000 4.0682
" />
<path d="M56.8000 16.0682
L67.8000 16.0682
" />
<path d="M67.6000 8.0682
L68.8000 8.0682
" />
<path d="M67.6000 12.0682
L67.6000 8.0682
" />
<path d="M67.8000 5.5682
L67.8000 4.0682
" />
<path d="M67.8000 14.5682
L68.8000 14.5682
" />
<path d="M67.8000 16.0682
L67.8000 14.5682
" />
<path d="M68.8000 5.5682
L67.8000 5.5682
" />
<path d="M68.8000 8.0682
L68.8000 5.5682
" />
<path d="M68.8000 12.0682
L67.6000 12.0682
" />
<path d="M68.8000 14.5682
L68.8000 12.0682
" />
<path style="fill:none; 
stroke:#000000; stroke-width:0.1000; stroke-opacity:1; 
stroke-linecap:round; stroke-linejoin:round;fill:none"
d="M 19.3000,64.8265
7.3000,64.8265
7.3000,76.8265
19.3000,76.8265
Z" /> 
<path style="fill:none; 
stroke:#000000; stroke-width:0.1000; stroke-opacity:1; 
stroke-linecap:round; stroke-linejoin:round;fill:none"
d="M 5.1750,3.8182
67.8500,3.8182
67.8500,85.8932
5.1750,85.8932
Z" /> 
</g> 
</svg>
