<?xml version="1.0" standalone="no"?>
 <!DOCTYPE svg PUBLIC "-//W3C//DTD SVG 1.1//EN" 
 "http://www.w3.org/Graphics/SVG/1.1/DTD/svg11.dtd"> 
<svg
  xmlns:svg="http://www.w3.org/2000/svg"
  xmlns="http://www.w3.org/2000/svg"
  xmlns:xlink="http://www.w3.org/1999/xlink"
  version="1.1"
  width="82.8548mm" height="91.4146mm" viewBox="0.0000 0.0000 82.8548 91.4146">
<title>SVG Image created as storybox-B_Silkscreen.svg date 2024/04/03 21:56:16 </title>
  <desc>Image generated by PCBNEW </desc>
<g style="fill:#000000; fill-opacity:1.0000;stroke:#000000; stroke-opacity:1.0000;
stroke-linecap:round; stroke-linejoin:round;"
 transform="translate(0 0) scale(1 1)">
</g>
<g style="fill:none; 
stroke:#000000; stroke-width:0.1000; stroke-opacity:1; 
stroke-linecap:round; stroke-linejoin:round;">
<g transform="rotate(-90.000000 37.6500 15.3933)">
<text x="37.6500" y="15.3933"
transform="scale(-1 1) translate(-75.300000 0)"
textLength="34.0714" font-size="2.0000" lengthAdjust="spacingAndGlyphs"
text-anchor="start" opacity="0">Fablab'ke - Campus St-Jean</text>
</g>
<g class="stroked-text"><desc>Fablab'ke - Campus St-Jean</desc>
<path d="M36.6755 16.3162
L36.6755 15.8162
" />
<path d="M37.4612 15.8162
L35.9612 15.8162
" />
<path d="M35.9612 15.8162
L35.9612 16.5305
" />
<path d="M37.4612 17.7448
L36.6755 17.7448
" />
<path d="M36.6755 17.7448
L36.5327 17.6733
" />
<path d="M36.5327 17.6733
L36.4612 17.5305
" />
<path d="M36.4612 17.5305
L36.4612 17.2448
" />
<path d="M36.4612 17.2448
L36.5327 17.1019
" />
<path d="M37.3898 17.7448
L37.4612 17.6019
" />
<path d="M37.4612 17.6019
L37.4612 17.2448
" />
<path d="M37.4612 17.2448
L37.3898 17.1019
" />
<path d="M37.3898 17.1019
L37.2469 17.0305
" />
<path d="M37.2469 17.0305
L37.1041 17.0305
" />
<path d="M37.1041 17.0305
L36.9612 17.1019
" />
<path d="M36.9612 17.1019
L36.8898 17.2448
" />
<path d="M36.8898 17.2448
L36.8898 17.6019
" />
<path d="M36.8898 17.6019
L36.8184 17.7448
" />
<path d="M37.4612 18.4590
L35.9612 18.4590
" />
<path d="M36.5327 18.4590
L36.4612 18.6019
" />
<path d="M36.4612 18.6019
L36.4612 18.8876
" />
<path d="M36.4612 18.8876
L36.5327 19.0305
" />
<path d="M36.5327 19.0305
L36.6041 19.1019
" />
<path d="M36.6041 19.1019
L36.7469 19.1733
" />
<path d="M36.7469 19.1733
L37.1755 19.1733
" />
<path d="M37.1755 19.1733
L37.3184 19.1019
" />
<path d="M37.3184 19.1019
L37.3898 19.0305
" />
<path d="M37.3898 19.0305
L37.4612 18.8876
" />
<path d="M37.4612 18.8876
L37.4612 18.6019
" />
<path d="M37.4612 18.6019
L37.3898 18.4590
" />
<path d="M37.4612 20.0305
L37.3898 19.8876
" />
<path d="M37.3898 19.8876
L37.2469 19.8162
" />
<path d="M37.2469 19.8162
L35.9612 19.8162
" />
<path d="M37.4612 21.2448
L36.6755 21.2448
" />
<path d="M36.6755 21.2448
L36.5327 21.1733
" />
<path d="M36.5327 21.1733
L36.4612 21.0305
" />
<path d="M36.4612 21.0305
L36.4612 20.7448
" />
<path d="M36.4612 20.7448
L36.5327 20.6019
" />
<path d="M37.3898 21.2448
L37.4612 21.1019
" />
<path d="M37.4612 21.1019
L37.4612 20.7448
" />
<path d="M37.4612 20.7448
L37.3898 20.6019
" />
<path d="M37.3898 20.6019
L37.2469 20.5305
" />
<path d="M37.2469 20.5305
L37.1041 20.5305
" />
<path d="M37.1041 20.5305
L36.9612 20.6019
" />
<path d="M36.9612 20.6019
L36.8898 20.7448
" />
<path d="M36.8898 20.7448
L36.8898 21.1019
" />
<path d="M36.8898 21.1019
L36.8184 21.2448
" />
<path d="M37.4612 21.9590
L35.9612 21.9590
" />
<path d="M36.5327 21.9590
L36.4612 22.1019
" />
<path d="M36.4612 22.1019
L36.4612 22.3876
" />
<path d="M36.4612 22.3876
L36.5327 22.5305
" />
<path d="M36.5327 22.5305
L36.6041 22.6019
" />
<path d="M36.6041 22.6019
L36.7469 22.6733
" />
<path d="M36.7469 22.6733
L37.1755 22.6733
" />
<path d="M37.1755 22.6733
L37.3184 22.6019
" />
<path d="M37.3184 22.6019
L37.3898 22.5305
" />
<path d="M37.3898 22.5305
L37.4612 22.3876
" />
<path d="M37.4612 22.3876
L37.4612 22.1019
" />
<path d="M37.4612 22.1019
L37.3898 21.9590
" />
<path d="M35.9612 23.3876
L36.2469 23.2448
" />
<path d="M37.4612 24.0305
L35.9612 24.0305
" />
<path d="M36.8898 24.1733
L37.4612 24.6019
" />
<path d="M36.4612 24.6019
L37.0327 24.0305
" />
<path d="M37.3898 25.8162
L37.4612 25.6733
" />
<path d="M37.4612 25.6733
L37.4612 25.3876
" />
<path d="M37.4612 25.3876
L37.3898 25.2448
" />
<path d="M37.3898 25.2448
L37.2469 25.1733
" />
<path d="M37.2469 25.1733
L36.6755 25.1733
" />
<path d="M36.6755 25.1733
L36.5327 25.2448
" />
<path d="M36.5327 25.2448
L36.4612 25.3876
" />
<path d="M36.4612 25.3876
L36.4612 25.6733
" />
<path d="M36.4612 25.6733
L36.5327 25.8162
" />
<path d="M36.5327 25.8162
L36.6755 25.8876
" />
<path d="M36.6755 25.8876
L36.8184 25.8876
" />
<path d="M36.8184 25.8876
L36.9612 25.1733
" />
<path d="M36.8898 27.6733
L36.8898 28.8162
" />
<path d="M37.3184 31.5305
L37.3898 31.4590
" />
<path d="M37.3898 31.4590
L37.4612 31.2448
" />
<path d="M37.4612 31.2448
L37.4612 31.1019
" />
<path d="M37.4612 31.1019
L37.3898 30.8876
" />
<path d="M37.3898 30.8876
L37.2469 30.7448
" />
<path d="M37.2469 30.7448
L37.1041 30.6733
" />
<path d="M37.1041 30.6733
L36.8184 30.6019
" />
<path d="M36.8184 30.6019
L36.6041 30.6019
" />
<path d="M36.6041 30.6019
L36.3184 30.6733
" />
<path d="M36.3184 30.6733
L36.1755 30.7448
" />
<path d="M36.1755 30.7448
L36.0327 30.8876
" />
<path d="M36.0327 30.8876
L35.9612 31.1019
" />
<path d="M35.9612 31.1019
L35.9612 31.2448
" />
<path d="M35.9612 31.2448
L36.0327 31.4590
" />
<path d="M36.0327 31.4590
L36.1041 31.5305
" />
<path d="M37.4612 32.8162
L36.6755 32.8162
" />
<path d="M36.6755 32.8162
L36.5327 32.7448
" />
<path d="M36.5327 32.7448
L36.4612 32.6019
" />
<path d="M36.4612 32.6019
L36.4612 32.3162
" />
<path d="M36.4612 32.3162
L36.5327 32.1733
" />
<path d="M37.3898 32.8162
L37.4612 32.6733
" />
<path d="M37.4612 32.6733
L37.4612 32.3162
" />
<path d="M37.4612 32.3162
L37.3898 32.1733
" />
<path d="M37.3898 32.1733
L37.2469 32.1019
" />
<path d="M37.2469 32.1019
L37.1041 32.1019
" />
<path d="M37.1041 32.1019
L36.9612 32.1733
" />
<path d="M36.9612 32.1733
L36.8898 32.3162
" />
<path d="M36.8898 32.3162
L36.8898 32.6733
" />
<path d="M36.8898 32.6733
L36.8184 32.8162
" />
<path d="M37.4612 33.5305
L36.4612 33.5305
" />
<path d="M36.6041 33.5305
L36.5327 33.6019
" />
<path d="M36.5327 33.6019
L36.4612 33.7448
" />
<path d="M36.4612 33.7448
L36.4612 33.9590
" />
<path d="M36.4612 33.9590
L36.5327 34.1019
" />
<path d="M36.5327 34.1019
L36.6755 34.1733
" />
<path d="M36.6755 34.1733
L37.4612 34.1733
" />
<path d="M36.6755 34.1733
L36.5327 34.2448
" />
<path d="M36.5327 34.2448
L36.4612 34.3876
" />
<path d="M36.4612 34.3876
L36.4612 34.6019
" />
<path d="M36.4612 34.6019
L36.5327 34.7448
" />
<path d="M36.5327 34.7448
L36.6755 34.8162
" />
<path d="M36.6755 34.8162
L37.4612 34.8162
" />
<path d="M36.4612 35.5305
L37.9612 35.5305
" />
<path d="M36.5327 35.5305
L36.4612 35.6733
" />
<path d="M36.4612 35.6733
L36.4612 35.9590
" />
<path d="M36.4612 35.9590
L36.5327 36.1019
" />
<path d="M36.5327 36.1019
L36.6041 36.1733
" />
<path d="M36.6041 36.1733
L36.7469 36.2448
" />
<path d="M36.7469 36.2448
L37.1755 36.2448
" />
<path d="M37.1755 36.2448
L37.3184 36.1733
" />
<path d="M37.3184 36.1733
L37.3898 36.1019
" />
<path d="M37.3898 36.1019
L37.4612 35.9590
" />
<path d="M37.4612 35.9590
L37.4612 35.6733
" />
<path d="M37.4612 35.6733
L37.3898 35.5305
" />
<path d="M36.4612 37.5305
L37.4612 37.5305
" />
<path d="M36.4612 36.8876
L37.2469 36.8876
" />
<path d="M37.2469 36.8876
L37.3898 36.9590
" />
<path d="M37.3898 36.9590
L37.4612 37.1019
" />
<path d="M37.4612 37.1019
L37.4612 37.3162
" />
<path d="M37.4612 37.3162
L37.3898 37.4590
" />
<path d="M37.3898 37.4590
L37.3184 37.5305
" />
<path d="M37.3898 38.1733
L37.4612 38.3162
" />
<path d="M37.4612 38.3162
L37.4612 38.6019
" />
<path d="M37.4612 38.6019
L37.3898 38.7448
" />
<path d="M37.3898 38.7448
L37.2469 38.8162
" />
<path d="M37.2469 38.8162
L37.1755 38.8162
" />
<path d="M37.1755 38.8162
L37.0327 38.7448
" />
<path d="M37.0327 38.7448
L36.9612 38.6019
" />
<path d="M36.9612 38.6019
L36.9612 38.3876
" />
<path d="M36.9612 38.3876
L36.8898 38.2448
" />
<path d="M36.8898 38.2448
L36.7469 38.1733
" />
<path d="M36.7469 38.1733
L36.6755 38.1733
" />
<path d="M36.6755 38.1733
L36.5327 38.2448
" />
<path d="M36.5327 38.2448
L36.4612 38.3876
" />
<path d="M36.4612 38.3876
L36.4612 38.6019
" />
<path d="M36.4612 38.6019
L36.5327 38.7448
" />
<path d="M37.3898 40.5305
L37.4612 40.7448
" />
<path d="M37.4612 40.7448
L37.4612 41.1019
" />
<path d="M37.4612 41.1019
L37.3898 41.2448
" />
<path d="M37.3898 41.2448
L37.3184 41.3162
" />
<path d="M37.3184 41.3162
L37.1755 41.3876
" />
<path d="M37.1755 41.3876
L37.0327 41.3876
" />
<path d="M37.0327 41.3876
L36.8898 41.3162
" />
<path d="M36.8898 41.3162
L36.8184 41.2448
" />
<path d="M36.8184 41.2448
L36.7469 41.1019
" />
<path d="M36.7469 41.1019
L36.6755 40.8162
" />
<path d="M36.6755 40.8162
L36.6041 40.6733
" />
<path d="M36.6041 40.6733
L36.5327 40.6019
" />
<path d="M36.5327 40.6019
L36.3898 40.5305
" />
<path d="M36.3898 40.5305
L36.2469 40.5305
" />
<path d="M36.2469 40.5305
L36.1041 40.6019
" />
<path d="M36.1041 40.6019
L36.0327 40.6733
" />
<path d="M36.0327 40.6733
L35.9612 40.8162
" />
<path d="M35.9612 40.8162
L35.9612 41.1733
" />
<path d="M35.9612 41.1733
L36.0327 41.3876
" />
<path d="M36.4612 41.8162
L36.4612 42.3876
" />
<path d="M35.9612 42.0305
L37.2469 42.0305
" />
<path d="M37.2469 42.0305
L37.3898 42.1019
" />
<path d="M37.3898 42.1019
L37.4612 42.2448
" />
<path d="M37.4612 42.2448
L37.4612 42.3876
" />
<path d="M36.8898 42.8876
L36.8898 44.0305
" />
<path d="M35.9612 45.1733
L37.0327 45.1733
" />
<path d="M37.0327 45.1733
L37.2469 45.1019
" />
<path d="M37.2469 45.1019
L37.3898 44.9590
" />
<path d="M37.3898 44.9590
L37.4612 44.7448
" />
<path d="M37.4612 44.7448
L37.4612 44.6019
" />
<path d="M37.3898 46.4590
L37.4612 46.3162
" />
<path d="M37.4612 46.3162
L37.4612 46.0305
" />
<path d="M37.4612 46.0305
L37.3898 45.8876
" />
<path d="M37.3898 45.8876
L37.2469 45.8162
" />
<path d="M37.2469 45.8162
L36.6755 45.8162
" />
<path d="M36.6755 45.8162
L36.5327 45.8876
" />
<path d="M36.5327 45.8876
L36.4612 46.0305
" />
<path d="M36.4612 46.0305
L36.4612 46.3162
" />
<path d="M36.4612 46.3162
L36.5327 46.4590
" />
<path d="M36.5327 46.4590
L36.6755 46.5305
" />
<path d="M36.6755 46.5305
L36.8184 46.5305
" />
<path d="M36.8184 46.5305
L36.9612 45.8162
" />
<path d="M37.4612 47.8162
L36.6755 47.8162
" />
<path d="M36.6755 47.8162
L36.5327 47.7448
" />
<path d="M36.5327 47.7448
L36.4612 47.6019
" />
<path d="M36.4612 47.6019
L36.4612 47.3162
" />
<path d="M36.4612 47.3162
L36.5327 47.1733
" />
<path d="M37.3898 47.8162
L37.4612 47.6733
" />
<path d="M37.4612 47.6733
L37.4612 47.3162
" />
<path d="M37.4612 47.3162
L37.3898 47.1733
" />
<path d="M37.3898 47.1733
L37.2469 47.1019
" />
<path d="M37.2469 47.1019
L37.1041 47.1019
" />
<path d="M37.1041 47.1019
L36.9612 47.1733
" />
<path d="M36.9612 47.1733
L36.8898 47.3162
" />
<path d="M36.8898 47.3162
L36.8898 47.6733
" />
<path d="M36.8898 47.6733
L36.8184 47.8162
" />
<path d="M36.4612 48.5305
L37.4612 48.5305
" />
<path d="M36.6041 48.5305
L36.5327 48.6019
" />
<path d="M36.5327 48.6019
L36.4612 48.7448
" />
<path d="M36.4612 48.7448
L36.4612 48.9590
" />
<path d="M36.4612 48.9590
L36.5327 49.1019
" />
<path d="M36.5327 49.1019
L36.6755 49.1733
" />
<path d="M36.6755 49.1733
L37.4612 49.1733
" />
</g><text x="24.9232" y="42.8134"
transform="scale(-1 1) translate(-49.846400 0)"
textLength="2.3495" font-size="1.0667" lengthAdjust="spacingAndGlyphs"
text-anchor="start" opacity="0">3V3</text>
<g class="stroked-text"><desc>3V3</desc>
<path d="M24.7431 41.9103
L24.2479 41.9103
" />
<path d="M24.2479 41.9103
L24.5146 42.2151
" />
<path d="M24.5146 42.2151
L24.4003 42.2151
" />
<path d="M24.4003 42.2151
L24.3241 42.2532
" />
<path d="M24.3241 42.2532
L24.2860 42.2913
" />
<path d="M24.2860 42.2913
L24.2479 42.3675
" />
<path d="M24.2479 42.3675
L24.2479 42.5580
" />
<path d="M24.2479 42.5580
L24.2860 42.6342
" />
<path d="M24.2860 42.6342
L24.3241 42.6722
" />
<path d="M24.3241 42.6722
L24.4003 42.7103
" />
<path d="M24.4003 42.7103
L24.6288 42.7103
" />
<path d="M24.6288 42.7103
L24.7050 42.6722
" />
<path d="M24.7050 42.6722
L24.7431 42.6342
" />
<path d="M24.0193 41.9103
L23.7526 42.7103
" />
<path d="M23.7526 42.7103
L23.4860 41.9103
" />
<path d="M23.2955 41.9103
L22.8003 41.9103
" />
<path d="M22.8003 41.9103
L23.0669 42.2151
" />
<path d="M23.0669 42.2151
L22.9526 42.2151
" />
<path d="M22.9526 42.2151
L22.8765 42.2532
" />
<path d="M22.8765 42.2532
L22.8384 42.2913
" />
<path d="M22.8384 42.2913
L22.8003 42.3675
" />
<path d="M22.8003 42.3675
L22.8003 42.5580
" />
<path d="M22.8003 42.5580
L22.8384 42.6342
" />
<path d="M22.8384 42.6342
L22.8765 42.6722
" />
<path d="M22.8765 42.6722
L22.9526 42.7103
" />
<path d="M22.9526 42.7103
L23.1812 42.7103
" />
<path d="M23.1812 42.7103
L23.2574 42.6722
" />
<path d="M23.2574 42.6722
L23.2955 42.6342
" />
</g></g>
<g style="fill:none; 
stroke:#000000; stroke-width:0.2000; stroke-opacity:1; 
stroke-linecap:round; stroke-linejoin:round;">
<g transform="rotate(-90.000000 35.2878 14.1232)">
<text x="35.2878" y="14.1232"
transform="scale(-1 1) translate(-70.575600 0)"
textLength="29.0571" font-size="2.6667" lengthAdjust="spacingAndGlyphs"
text-anchor="start" opacity="0">Boite à histoire V2</text>
</g>
<g class="stroked-text"><desc>Boite à histoire V2</desc>
<path d="M33.9850 15.3977
L34.0803 15.6834
" />
<path d="M34.0803 15.6834
L34.1755 15.7786
" />
<path d="M34.1755 15.7786
L34.3660 15.8739
" />
<path d="M34.3660 15.8739
L34.6517 15.8739
" />
<path d="M34.6517 15.8739
L34.8422 15.7786
" />
<path d="M34.8422 15.7786
L34.9374 15.6834
" />
<path d="M34.9374 15.6834
L35.0326 15.4929
" />
<path d="M35.0326 15.4929
L35.0326 14.7310
" />
<path d="M35.0326 14.7310
L33.0326 14.7310
" />
<path d="M33.0326 14.7310
L33.0326 15.3977
" />
<path d="M33.0326 15.3977
L33.1279 15.5882
" />
<path d="M33.1279 15.5882
L33.2231 15.6834
" />
<path d="M33.2231 15.6834
L33.4136 15.7786
" />
<path d="M33.4136 15.7786
L33.6041 15.7786
" />
<path d="M33.6041 15.7786
L33.7945 15.6834
" />
<path d="M33.7945 15.6834
L33.8898 15.5882
" />
<path d="M33.8898 15.5882
L33.9850 15.3977
" />
<path d="M33.9850 15.3977
L33.9850 14.7310
" />
<path d="M35.0326 17.0167
L34.9374 16.8263
" />
<path d="M34.9374 16.8263
L34.8422 16.7310
" />
<path d="M34.8422 16.7310
L34.6517 16.6358
" />
<path d="M34.6517 16.6358
L34.0803 16.6358
" />
<path d="M34.0803 16.6358
L33.8898 16.7310
" />
<path d="M33.8898 16.7310
L33.7945 16.8263
" />
<path d="M33.7945 16.8263
L33.6993 17.0167
" />
<path d="M33.6993 17.0167
L33.6993 17.3024
" />
<path d="M33.6993 17.3024
L33.7945 17.4929
" />
<path d="M33.7945 17.4929
L33.8898 17.5882
" />
<path d="M33.8898 17.5882
L34.0803 17.6834
" />
<path d="M34.0803 17.6834
L34.6517 17.6834
" />
<path d="M34.6517 17.6834
L34.8422 17.5882
" />
<path d="M34.8422 17.5882
L34.9374 17.4929
" />
<path d="M34.9374 17.4929
L35.0326 17.3024
" />
<path d="M35.0326 17.3024
L35.0326 17.0167
" />
<path d="M35.0326 18.5405
L33.6993 18.5405
" />
<path d="M33.0326 18.5405
L33.1279 18.4453
" />
<path d="M33.1279 18.4453
L33.2231 18.5405
" />
<path d="M33.2231 18.5405
L33.1279 18.6358
" />
<path d="M33.1279 18.6358
L33.0326 18.5405
" />
<path d="M33.0326 18.5405
L33.2231 18.5405
" />
<path d="M33.6993 19.2072
L33.6993 19.9691
" />
<path d="M33.0326 19.4929
L34.7469 19.4929
" />
<path d="M34.7469 19.4929
L34.9374 19.5882
" />
<path d="M34.9374 19.5882
L35.0326 19.7786
" />
<path d="M35.0326 19.7786
L35.0326 19.9691
" />
<path d="M34.9374 21.3977
L35.0326 21.2072
" />
<path d="M35.0326 21.2072
L35.0326 20.8263
" />
<path d="M35.0326 20.8263
L34.9374 20.6358
" />
<path d="M34.9374 20.6358
L34.7469 20.5405
" />
<path d="M34.7469 20.5405
L33.9850 20.5405
" />
<path d="M33.9850 20.5405
L33.7945 20.6358
" />
<path d="M33.7945 20.6358
L33.6993 20.8263
" />
<path d="M33.6993 20.8263
L33.6993 21.2072
" />
<path d="M33.6993 21.2072
L33.7945 21.3977
" />
<path d="M33.7945 21.3977
L33.9850 21.4929
" />
<path d="M33.9850 21.4929
L34.1755 21.4929
" />
<path d="M34.1755 21.4929
L34.3660 20.5405
" />
<path d="M35.0326 24.7310
L33.9850 24.7310
" />
<path d="M33.9850 24.7310
L33.7945 24.6358
" />
<path d="M33.7945 24.6358
L33.6993 24.4453
" />
<path d="M33.6993 24.4453
L33.6993 24.0644
" />
<path d="M33.6993 24.0644
L33.7945 23.8739
" />
<path d="M34.9374 24.7310
L35.0326 24.5405
" />
<path d="M35.0326 24.5405
L35.0326 24.0644
" />
<path d="M35.0326 24.0644
L34.9374 23.8739
" />
<path d="M34.9374 23.8739
L34.7469 23.7786
" />
<path d="M34.7469 23.7786
L34.5564 23.7786
" />
<path d="M34.5564 23.7786
L34.3660 23.8739
" />
<path d="M34.3660 23.8739
L34.2707 24.0644
" />
<path d="M34.2707 24.0644
L34.2707 24.5405
" />
<path d="M34.2707 24.5405
L34.1755 24.7310
" />
<path d="M32.9374 24.0644
L33.2231 24.3501
" />
<path d="M35.0326 27.2072
L33.0326 27.2072
" />
<path d="M35.0326 28.0644
L33.9850 28.0644
" />
<path d="M33.9850 28.0644
L33.7945 27.9691
" />
<path d="M33.7945 27.9691
L33.6993 27.7786
" />
<path d="M33.6993 27.7786
L33.6993 27.4929
" />
<path d="M33.6993 27.4929
L33.7945 27.3024
" />
<path d="M33.7945 27.3024
L33.8898 27.2072
" />
<path d="M35.0326 29.0167
L33.6993 29.0167
" />
<path d="M33.0326 29.0167
L33.1279 28.9215
" />
<path d="M33.1279 28.9215
L33.2231 29.0167
" />
<path d="M33.2231 29.0167
L33.1279 29.1120
" />
<path d="M33.1279 29.1120
L33.0326 29.0167
" />
<path d="M33.0326 29.0167
L33.2231 29.0167
" />
<path d="M34.9374 29.8739
L35.0326 30.0644
" />
<path d="M35.0326 30.0644
L35.0326 30.4453
" />
<path d="M35.0326 30.4453
L34.9374 30.6358
" />
<path d="M34.9374 30.6358
L34.7469 30.7310
" />
<path d="M34.7469 30.7310
L34.6517 30.7310
" />
<path d="M34.6517 30.7310
L34.4612 30.6358
" />
<path d="M34.4612 30.6358
L34.3660 30.4453
" />
<path d="M34.3660 30.4453
L34.3660 30.1596
" />
<path d="M34.3660 30.1596
L34.2707 29.9691
" />
<path d="M34.2707 29.9691
L34.0803 29.8739
" />
<path d="M34.0803 29.8739
L33.9850 29.8739
" />
<path d="M33.9850 29.8739
L33.7945 29.9691
" />
<path d="M33.7945 29.9691
L33.6993 30.1596
" />
<path d="M33.6993 30.1596
L33.6993 30.4453
" />
<path d="M33.6993 30.4453
L33.7945 30.6358
" />
<path d="M33.6993 31.3024
L33.6993 32.0644
" />
<path d="M33.0326 31.5882
L34.7469 31.5882
" />
<path d="M34.7469 31.5882
L34.9374 31.6834
" />
<path d="M34.9374 31.6834
L35.0326 31.8739
" />
<path d="M35.0326 31.8739
L35.0326 32.0644
" />
<path d="M35.0326 33.0167
L34.9374 32.8263
" />
<path d="M34.9374 32.8263
L34.8422 32.7310
" />
<path d="M34.8422 32.7310
L34.6517 32.6358
" />
<path d="M34.6517 32.6358
L34.0803 32.6358
" />
<path d="M34.0803 32.6358
L33.8898 32.7310
" />
<path d="M33.8898 32.7310
L33.7945 32.8263
" />
<path d="M33.7945 32.8263
L33.6993 33.0167
" />
<path d="M33.6993 33.0167
L33.6993 33.3024
" />
<path d="M33.6993 33.3024
L33.7945 33.4929
" />
<path d="M33.7945 33.4929
L33.8898 33.5882
" />
<path d="M33.8898 33.5882
L34.0803 33.6834
" />
<path d="M34.0803 33.6834
L34.6517 33.6834
" />
<path d="M34.6517 33.6834
L34.8422 33.5882
" />
<path d="M34.8422 33.5882
L34.9374 33.4929
" />
<path d="M34.9374 33.4929
L35.0326 33.3024
" />
<path d="M35.0326 33.3024
L35.0326 33.0167
" />
<path d="M35.0326 34.5405
L33.6993 34.5405
" />
<path d="M33.0326 34.5405
L33.1279 34.4453
" />
<path d="M33.1279 34.4453
L33.2231 34.5405
" />
<path d="M33.2231 34.5405
L33.1279 34.6358
" />
<path d="M33.1279 34.6358
L33.0326 34.5405
" />
<path d="M33.0326 34.5405
L33.2231 34.5405
" />
<path d="M35.0326 35.4929
L33.6993 35.4929
" />
<path d="M34.0803 35.4929
L33.8898 35.5882
" />
<path d="M33.8898 35.5882
L33.7945 35.6834
" />
<path d="M33.7945 35.6834
L33.6993 35.8739
" />
<path d="M33.6993 35.8739
L33.6993 36.0644
" />
<path d="M34.9374 37.4929
L35.0326 37.3024
" />
<path d="M35.0326 37.3024
L35.0326 36.9215
" />
<path d="M35.0326 36.9215
L34.9374 36.7310
" />
<path d="M34.9374 36.7310
L34.7469 36.6358
" />
<path d="M34.7469 36.6358
L33.9850 36.6358
" />
<path d="M33.9850 36.6358
L33.7945 36.7310
" />
<path d="M33.7945 36.7310
L33.6993 36.9215
" />
<path d="M33.6993 36.9215
L33.6993 37.3024
" />
<path d="M33.6993 37.3024
L33.7945 37.4929
" />
<path d="M33.7945 37.4929
L33.9850 37.5882
" />
<path d="M33.9850 37.5882
L34.1755 37.5882
" />
<path d="M34.1755 37.5882
L34.3660 36.6358
" />
<path d="M33.0326 39.6834
L35.0326 40.3501
" />
<path d="M35.0326 40.3501
L33.0326 41.0167
" />
<path d="M33.2231 41.5882
L33.1279 41.6834
" />
<path d="M33.1279 41.6834
L33.0326 41.8739
" />
<path d="M33.0326 41.8739
L33.0326 42.3501
" />
<path d="M33.0326 42.3501
L33.1279 42.5405
" />
<path d="M33.1279 42.5405
L33.2231 42.6358
" />
<path d="M33.2231 42.6358
L33.4136 42.7310
" />
<path d="M33.4136 42.7310
L33.6041 42.7310
" />
<path d="M33.6041 42.7310
L33.8898 42.6358
" />
<path d="M33.8898 42.6358
L35.0326 41.4929
" />
<path d="M35.0326 41.4929
L35.0326 42.7310
" />
</g><path style="fill:none; 
stroke:#000000; stroke-width:0.1000; stroke-opacity:1; 
stroke-linecap:round; stroke-linejoin:round;fill:none"
d="M 5.1750,3.8182
67.8500,3.8182
67.8500,85.8932
5.1750,85.8932
Z" /> 
</g> 
</svg>
